<svg xmlns="http://www.w3.org/2000/svg" viewBox="0 0 471.79 67.81"><defs><style>.cls-1{fill:none;stroke:#231f20;stroke-miterlimit:10;stroke-width:2px;}</style></defs><g id="Layer_2" data-name="Layer 2"><g id="Layer_1-2" data-name="Layer 1"><path class="cls-1" d="M28.58,25.55l.36-7.85H28.5L20.44,30.88H18.71L10.29,17.7H9.93l.43,7.06V52.41H1V2H11l8.64,14h.29L28.5,2h9.94v50.4H28.58Z"/><path class="cls-1" d="M47.8,18.86a39.27,39.27,0,0,1,6.66-2.24,37.89,37.89,0,0,1,9-.93,19.86,19.86,0,0,1,6.38.9A10.67,10.67,0,0,1,74,19.14a9.79,9.79,0,0,1,2.34,4,17.41,17.41,0,0,1,.72,5.19c0,2.45-.08,4.53-.25,6.26s-.25,3.27-.25,4.61c0,1,.05,2.14.14,3.38.1.68.17,1.32.22,2h4.68v7.92H69.55l-.94-4.9h-.36a12.32,12.32,0,0,1-4.08,3.85A13.62,13.62,0,0,1,57,53,12.14,12.14,0,0,1,48.5,50.1a9.82,9.82,0,0,1-3.15-7.63,11.48,11.48,0,0,1,1.11-5.22,9.35,9.35,0,0,1,3.22-3.6,15.53,15.53,0,0,1,5.08-2.09,29.87,29.87,0,0,1,6.62-.68c.85,0,1.76.05,2.71.14s2.13.2,3.51.29a7.81,7.81,0,0,0,.14-1.44V28.5a4.59,4.59,0,0,0-1.57-3.92,7.66,7.66,0,0,0-4.65-1.19,21.62,21.62,0,0,0-6.57.94A41.23,41.23,0,0,0,50,26.2ZM60.05,45.28A8.62,8.62,0,0,0,65.18,44a8.43,8.43,0,0,0,2.49-2.7V37c-.47-.1-1.19-.2-2.13-.32a24.63,24.63,0,0,0-3.07-.18,14.51,14.51,0,0,0-2.7.25,9,9,0,0,0-2.42.79,4.85,4.85,0,0,0-1.71,1.4A3.41,3.41,0,0,0,55,41a4.1,4.1,0,0,0,1.17,3.13A5.52,5.52,0,0,0,60.05,45.28Z"/><path class="cls-1" d="M92.87,24.33H85.74V16.41h7.13V8.2l9.36-2.66V16.41h18.86v7.92H102.23V34.62q0,5.55,2.09,8a7.18,7.18,0,0,0,5.83,2.49,12.51,12.51,0,0,0,3.53-.47,13.31,13.31,0,0,0,2.84-1.19,17.05,17.05,0,0,0,2.31-1.58l1.9-1.59,4.32,6.48A13.53,13.53,0,0,1,122,49.42a25.61,25.61,0,0,1-4,2.09,24.46,24.46,0,0,1-4.42,1.4,21,21,0,0,1-4.54.51q-8.07,0-12.13-4.5t-4.07-14.3Z"/><path class="cls-1" d="M136.07,24.33h-7.13V16.41h7.13V8.2l9.36-2.66V16.41h18.86v7.92H145.43V34.62c0,3.7.69,6.38,2.09,8a7.18,7.18,0,0,0,5.83,2.49,12.51,12.51,0,0,0,3.53-.47,13.31,13.31,0,0,0,2.84-1.19A17.05,17.05,0,0,0,162,41.9l1.9-1.59,4.32,6.48a13.53,13.53,0,0,1-3.06,2.63,25.61,25.61,0,0,1-4,2.09,24.46,24.46,0,0,1-4.42,1.4,21,21,0,0,1-4.54.51q-8.07,0-12.13-4.5t-4.07-14.3Z"/><path class="cls-1" d="M217.72,2,220,1.79c1.08-.09,2.31-.18,3.68-.25s2.78-.13,4.24-.18,2.78-.07,3.93-.07a27.63,27.63,0,0,1,11.09,1.94,17.14,17.14,0,0,1,6.94,5.37,20.41,20.41,0,0,1,3.57,8.06,47.88,47.88,0,0,1,1,10.12,46.88,46.88,0,0,1-1,9.72A22.66,22.66,0,0,1,249.79,45a18.73,18.73,0,0,1-7.27,6A27.24,27.24,0,0,1,230.6,53.2c-.76,0-1.75,0-2.95-.07L224,53l-3.6-.22c-1.15-.07-2-.15-2.66-.25Zm14.47,8.06c-.91,0-1.8,0-2.67.11s-1.51.13-1.94.18V44.13a5.56,5.56,0,0,0,.86.11l1.19.07,1.19.07c.38,0,.7,0,.94,0a12.53,12.53,0,0,0,6.66-1.55,9.72,9.72,0,0,0,3.7-4.07,17.29,17.29,0,0,0,1.59-5.69,56,56,0,0,0,.36-6.33,51.21,51.21,0,0,0-.33-5.69,16.23,16.23,0,0,0-1.51-5.4,10.06,10.06,0,0,0-3.56-4A11.55,11.55,0,0,0,232.19,10.07Z"/><path class="cls-1" d="M295.76,48.59a12.47,12.47,0,0,1-2.41,1.69,22.88,22.88,0,0,1-3.45,1.55A26.38,26.38,0,0,1,285.54,53a28,28,0,0,1-5,.44,24.52,24.52,0,0,1-8.24-1.3,16.12,16.12,0,0,1-10-9.76,22.12,22.12,0,0,1-1.33-8,21.16,21.16,0,0,1,1.51-8.32,16.66,16.66,0,0,1,4.14-5.94,17.28,17.28,0,0,1,6.15-3.56,23.85,23.85,0,0,1,7.64-1.19,23.59,23.59,0,0,1,5.65.72,15.51,15.51,0,0,1,5.36,2.48,13.45,13.45,0,0,1,4,4.72,16.07,16.07,0,0,1,1.55,7.49,35,35,0,0,1-.72,6.69H270.28a8.19,8.19,0,0,0,1,3.89A7.66,7.66,0,0,0,273.62,44,10.19,10.19,0,0,0,277,45.46a17.14,17.14,0,0,0,4.07.47,21.1,21.1,0,0,0,7.09-1,15,15,0,0,0,4.5-2.45Zm-15.55-25.7a12,12,0,0,0-3.53.51,9.74,9.74,0,0,0-3,1.51,8.34,8.34,0,0,0-2.2,2.45,7.6,7.6,0,0,0-1,3.3H288.2a7.92,7.92,0,0,0-2-5.68Q284.24,22.9,280.21,22.89Z"/><path class="cls-1" d="M332.48,35.49h7.92v14.4a17.61,17.61,0,0,1-5.87,2.59A29.29,29.29,0,0,1,318.19,52a19.33,19.33,0,0,1-7.52-4.53,22.45,22.45,0,0,1-5.19-8.14,33.72,33.72,0,0,1-1.94-12.13,31,31,0,0,1,2.19-12.42,22.9,22.9,0,0,1,5.66-8.07,21,21,0,0,1,7.7-4.39A27.76,27.76,0,0,1,327.44,1a31.71,31.71,0,0,1,7.31.72,24.55,24.55,0,0,1,4.93,1.66v15h-7.92V10.14a28.89,28.89,0,0,0-4.61-.36,13,13,0,0,0-5.22,1.05,11.26,11.26,0,0,0-4.21,3.2,15.43,15.43,0,0,0-2.8,5.44,26.14,26.14,0,0,0-1,7.74,25.36,25.36,0,0,0,.93,7.09,16.36,16.36,0,0,0,2.74,5.51A12.41,12.41,0,0,0,322,43.37a13.36,13.36,0,0,0,5.91,1.26,24,24,0,0,0,4.6-.43Z"/><path class="cls-1" d="M350.19,18.86a39.27,39.27,0,0,1,6.66-2.24,37.92,37.92,0,0,1,9-.93,19.79,19.79,0,0,1,6.37.9,10.71,10.71,0,0,1,4.25,2.55,9.79,9.79,0,0,1,2.34,4,17.41,17.41,0,0,1,.72,5.19c0,2.45-.09,4.53-.25,6.26s-.26,3.27-.26,4.61c0,1,.05,2.14.15,3.38.09.68.17,1.32.21,2H384v7.92H372l-.95-4.9h-.36a12.32,12.32,0,0,1-4.08,3.85A13.59,13.59,0,0,1,359.41,53a12.14,12.14,0,0,1-8.52-2.88,9.82,9.82,0,0,1-3.14-7.63,11.61,11.61,0,0,1,1.1-5.22,9.43,9.43,0,0,1,3.22-3.6,15.53,15.53,0,0,1,5.08-2.09,29.94,29.94,0,0,1,6.62-.68c.86,0,1.77.05,2.72.14s2.12.2,3.51.29a7.81,7.81,0,0,0,.14-1.44V28.5a4.62,4.62,0,0,0-1.57-3.92,7.66,7.66,0,0,0-4.65-1.19,21.69,21.69,0,0,0-6.58.94,41.9,41.9,0,0,0-4.93,1.87Zm12.26,26.42a7.8,7.8,0,0,0,7.62-4V37c-.48-.1-1.19-.2-2.14-.32a24.46,24.46,0,0,0-3.06-.18,14.69,14.69,0,0,0-2.71.25,9,9,0,0,0-2.42.79,4.85,4.85,0,0,0-1.71,1.4,3.48,3.48,0,0,0-.64,2.09,4.11,4.11,0,0,0,1.18,3.13A5.49,5.49,0,0,0,362.45,45.28Z"/><path class="cls-1" d="M404.26,52.41v-22a17.43,17.43,0,0,0-.28-3.5,6.69,6.69,0,0,0-.76-2.08,2.3,2.3,0,0,0-1.15-1,4,4,0,0,0-1.4-.25,3.65,3.65,0,0,0-2.27.79,3.84,3.84,0,0,0-1.41,2V52.41h-8.64v-36h6.84l1,4h.22a8.81,8.81,0,0,1,8.06-4.75A9.48,9.48,0,0,1,409,16.77a6.13,6.13,0,0,1,3,4A8,8,0,0,1,415.28,17a9.25,9.25,0,0,1,4.83-1.33,10.61,10.61,0,0,1,3.49.54,6.17,6.17,0,0,1,2.7,1.9,9.57,9.57,0,0,1,1.76,3.71,24.32,24.32,0,0,1,.61,6V52.41H420v-23c0-2.16-.35-3.67-1-4.54a3.19,3.19,0,0,0-2.56-1.29,4,4,0,0,0-2.23.61,3.2,3.2,0,0,0-1.29,2V52.41Z"/><path class="cls-1" d="M430.11,16.41h12.24l1.08,4.32h.29q3.75-5.33,12.1-5.33a17.28,17.28,0,0,1,6.08,1,11.85,11.85,0,0,1,4.75,3.28,15.38,15.38,0,0,1,3.06,5.62,26.86,26.86,0,0,1,1.08,8.13,26.65,26.65,0,0,1-1.22,8.32,17.73,17.73,0,0,1-3.53,6.3,15.11,15.11,0,0,1-5.62,4,19.64,19.64,0,0,1-7.56,1.37,29.09,29.09,0,0,1-4.39-.33,11.92,11.92,0,0,1-3.6-1V66.81h-9.36V24.33h-5.4ZM453,23.32a9.55,9.55,0,0,0-5,1.37,7.11,7.11,0,0,0-3.13,4.1v15A7.66,7.66,0,0,0,447.79,45a16.16,16.16,0,0,0,3.85.47,10,10,0,0,0,3.74-.69,7.68,7.68,0,0,0,3-2.19,10.73,10.73,0,0,0,2-3.82,18.72,18.72,0,0,0,.72-5.54c0-3.17-.76-5.62-2.3-7.35A7.46,7.46,0,0,0,453,23.32Z"/></g></g></svg>