<?xml version="1.0" standalone="no"?>
<!DOCTYPE svg PUBLIC "-//W3C//DTD SVG 20010904//EN"
 "http://www.w3.org/TR/2001/REC-SVG-20010904/DTD/svg10.dtd">
<svg version="1.0" xmlns="http://www.w3.org/2000/svg"
 width="800.000000pt" height="800.000000pt" viewBox="0 0 800.000000 800.000000"
 preserveAspectRatio="xMidYMid meet">
<metadata>
Created by potrace 1.11, written by Peter Selinger 2001-2013
</metadata>
<g transform="translate(0.000000,800.000000) scale(0.100000,-0.100000)"
fill="#000000" stroke="none">
<path d="M3403 7570 c-43 -18 -25 -30 32 -24 37 5 55 3 55 -4 0 -16 -9 -19
-74 -27 -46 -6 -57 -5 -51 5 5 8 2 11 -11 7 -11 -3 -48 -11 -84 -18 -36 -7
-74 -18 -85 -25 -28 -17 -103 -28 -118 -16 -18 14 -56 23 -117 28 -30 3 -60 6
-67 9 -17 6 -113 -19 -152 -39 -18 -10 -63 -22 -99 -27 -73 -11 -194 -70 -252
-124 -19 -17 -56 -46 -82 -64 -27 -18 -48 -37 -48 -42 0 -6 -4 -8 -9 -4 -5 3
-15 -1 -23 -8 -7 -7 -31 -24 -53 -37 -59 -36 -75 -52 -75 -75 0 -11 -11 -38
-25 -60 -14 -22 -28 -48 -31 -57 -3 -9 -25 -26 -48 -38 -60 -30 -98 -53 -114
-67 -7 -7 -17 -13 -22 -13 -8 0 -100 -132 -100 -144 0 -15 24 -3 47 24 13 17
29 30 33 30 14 0 -17 -66 -44 -95 -34 -37 -66 -105 -66 -141 0 -16 -9 -48 -20
-69 -12 -22 -23 -59 -27 -82 -3 -24 -10 -43 -14 -43 -5 0 -9 5 -9 10 0 19 -16
10 -33 -19 -9 -16 -14 -36 -11 -45 3 -9 1 -16 -5 -16 -6 0 -11 -13 -11 -29 0
-16 -7 -48 -15 -71 -8 -24 -13 -45 -11 -48 3 -2 -9 -22 -25 -45 -36 -49 -38
-69 -4 -37 l25 23 1 -24 c0 -22 1 -22 8 -4 5 11 14 37 21 59 6 21 21 47 31 57
23 23 30 24 23 4 -7 -18 7 -20 25 -2 11 10 12 7 6 -13 -7 -23 -5 -22 20 8 18
21 24 36 18 40 -7 5 -1 18 16 37 14 17 25 28 24 26 -2 -2 2 -11 9 -18 8 -10 8
-17 1 -21 -5 -4 -16 -19 -24 -34 -8 -15 -29 -49 -46 -77 -20 -30 -28 -51 -20
-51 11 0 71 81 89 120 11 25 9 -2 -4 -45 -6 -22 -11 -43 -10 -47 1 -5 -4 -8
-12 -8 -13 0 -27 -28 -30 -58 -1 -7 -11 -21 -23 -30 -28 -21 -63 -88 -63 -119
0 -14 -6 -23 -15 -23 -8 0 -15 -4 -15 -10 0 -12 11 -13 25 -2 10 7 50 84 60
116 9 29 20 9 16 -30 -2 -25 1 -34 13 -34 10 0 16 12 18 38 2 30 7 38 27 40
13 2 27 -2 31 -9 12 -18 46 19 55 59 8 36 -8 44 -25 12 -6 -11 -17 -20 -25
-20 -9 0 -12 -6 -9 -15 4 -8 1 -15 -5 -15 -20 0 -11 26 19 55 19 18 28 35 25
46 -6 19 40 80 58 76 7 -1 11 8 9 25 -2 18 4 30 17 37 26 14 34 14 25 -1 -4
-7 -3 -8 4 -4 7 4 12 13 12 21 0 7 7 15 15 19 8 3 15 3 15 1 0 -12 -64 -97
-81 -105 -10 -6 -19 -15 -19 -20 0 -16 22 -12 35 7 16 22 35 8 35 -27 0 -33
22 -45 38 -20 7 12 7 21 0 28 -13 13 15 62 35 62 9 0 9 2 -1 8 -10 7 -10 15
-1 38 13 35 20 64 21 84 0 8 11 26 23 40 31 35 85 134 85 156 0 18 69 94 85
94 5 0 1 -8 -8 -17 -24 -25 -66 -91 -61 -96 2 -2 -7 -26 -21 -53 -40 -78 -29
-101 20 -41 18 21 28 28 32 19 4 -10 8 -10 19 -1 19 15 18 4 -3 -29 -54 -87
-85 -132 -93 -132 -10 0 -72 -92 -66 -98 3 -2 19 11 37 30 17 18 26 25 19 16
-10 -15 -10 -18 3 -18 9 0 24 14 34 30 9 17 21 30 25 30 4 0 8 15 8 33 0 23 8
41 25 57 28 27 34 17 8 -13 -13 -15 -15 -21 -5 -24 17 -6 15 -33 -4 -54 -16
-17 -15 -18 17 -17 63 1 81 8 75 25 -4 9 4 29 19 49 14 18 25 36 25 40 0 4 7
15 16 25 13 15 14 23 3 52 -14 41 1 91 32 108 23 12 24 14 -5 -46 -18 -36 -21
-52 -13 -57 18 -12 21 -11 71 28 26 20 50 33 54 30 7 -8 -55 -72 -90 -94 -16
-9 -28 -22 -28 -29 0 -8 -7 -16 -15 -19 -8 -4 -15 -10 -15 -15 0 -18 15 -8 35
21 11 16 25 30 30 30 17 0 118 107 108 113 -18 11 0 69 31 101 17 17 37 43 45
59 8 15 25 34 38 43 14 8 33 24 44 35 10 10 31 19 45 19 26 0 26 -1 -11 -30
-21 -17 -44 -39 -52 -49 -27 -40 -83 -155 -83 -172 0 -11 -4 -19 -9 -19 -5 0
-13 -15 -16 -32 -4 -18 -16 -48 -27 -66 -11 -18 -18 -35 -16 -38 7 -6 61 45
75 70 6 11 19 20 29 21 24 1 44 13 44 26 0 6 -4 7 -10 4 -5 -3 -10 -2 -10 3 0
5 12 18 28 27 37 25 81 76 82 98 0 9 6 17 14 17 8 0 17 6 19 13 4 10 6 10 6 0
1 -15 21 -18 21 -3 0 5 -11 12 -25 16 -20 5 -23 9 -14 20 6 8 20 14 31 14 10
0 32 10 48 21 29 22 131 61 139 53 5 -5 10 -2 -70 -42 -66 -32 -104 -62 -80
-62 8 0 4 -12 -9 -30 -12 -16 -26 -30 -32 -30 -13 0 -118 -106 -118 -120 0 -5
5 -10 10 -10 15 0 12 -27 -4 -33 -7 -3 -16 -15 -19 -26 -5 -21 -5 -21 19 -2
15 12 33 17 51 13 l27 -5 -24 -9 c-14 -5 -27 -12 -30 -16 -3 -4 -14 -12 -24
-18 -11 -6 -24 -19 -30 -30 -6 -10 -20 -32 -31 -49 -11 -16 -27 -43 -35 -60
-8 -16 -25 -44 -37 -60 -12 -17 -26 -42 -32 -58 -10 -26 -31 -38 -31 -16 0 6
-9 8 -20 4 -12 -4 -20 -2 -20 5 0 6 -11 10 -24 8 -13 -1 -31 3 -40 11 -14 12
-19 10 -37 -13 -29 -37 -37 -32 -31 20 4 38 2 45 -9 40 -8 -3 -21 -9 -30 -12
-10 -3 -16 -16 -15 -29 1 -19 4 -21 20 -13 16 9 18 8 11 -8 -4 -11 -8 -26 -9
-35 -1 -17 -45 -58 -82 -77 -12 -6 -30 -36 -43 -68 -22 -57 -22 -89 0 -41 6
14 17 23 24 21 6 -3 19 12 29 34 14 30 22 38 37 35 10 -3 19 0 19 6 0 6 5 11
12 11 9 0 9 -3 0 -12 -7 -7 -12 -19 -12 -29 0 -9 -14 -42 -31 -74 -17 -31 -30
-69 -29 -84 3 -40 1 -51 -9 -51 -5 0 -7 9 -4 20 7 25 -15 27 -24 3 -3 -10 -14
-38 -26 -61 -18 -41 -19 -45 -3 -60 16 -16 19 -15 39 12 12 15 37 43 55 62 18
19 31 34 28 34 -3 0 -1 11 4 25 9 24 8 25 -11 15 -20 -11 -20 -11 -4 14 10 15
15 37 13 51 -5 26 32 72 50 61 10 -6 102 78 102 94 0 5 4 10 10 10 5 0 7 -8 4
-17 -3 -10 7 -4 23 14 15 17 48 41 72 52 37 17 41 18 28 3 -8 -9 -18 -27 -22
-40 -4 -16 -12 -21 -24 -17 -12 4 -25 -9 -50 -50 -30 -50 -32 -56 -17 -70 9
-9 21 -13 28 -9 7 5 -5 -16 -27 -46 l-40 -55 39 25 c22 13 36 18 31 10 -5 -8
4 -6 21 6 16 11 43 26 59 34 17 8 33 19 37 25 4 5 10 6 14 3 3 -4 -14 -28 -40
-54 -58 -57 -149 -208 -143 -238 3 -17 8 -12 26 27 12 26 25 47 29 47 10 0 53
40 84 77 l27 33 -2 -34 c-1 -19 -5 -32 -8 -30 -4 2 -13 -4 -20 -13 -12 -14
-11 -15 11 -8 14 4 32 14 41 21 8 8 22 14 30 14 8 0 20 5 27 12 22 22 26 -2 4
-25 -12 -13 -22 -31 -22 -40 0 -9 -7 -17 -15 -17 -16 0 -51 -47 -42 -57 3 -3
13 2 22 11 9 9 21 14 26 10 5 -3 25 4 44 16 19 12 35 17 35 11 0 -6 -7 -11
-15 -11 -8 0 -27 -21 -42 -47 -15 -27 -54 -72 -85 -102 -55 -52 -110 -120 -77
-95 8 6 24 11 36 12 19 1 17 -5 -20 -59 -22 -32 -38 -61 -35 -65 3 -3 20 15
37 40 29 42 128 146 139 146 2 0 -3 -12 -13 -26 -21 -33 -30 -84 -15 -84 6 0
-5 -19 -24 -42 -74 -86 -26 -68 66 25 33 33 56 63 49 65 -6 2 -11 8 -11 14 0
6 7 8 15 4 14 -5 21 20 16 60 -1 6 6 17 14 24 16 14 21 70 6 70 -14 0 -26 -22
-23 -42 2 -12 -3 -18 -17 -18 -11 0 -19 -6 -17 -12 1 -7 1 -10 -1 -6 -2 4 -11
4 -19 1 -8 -3 -14 0 -14 6 0 6 6 11 13 11 10 0 29 24 69 86 4 6 -2 28 -14 50
-13 25 -16 40 -9 42 13 4 15 62 2 62 -4 0 -6 11 -3 25 2 14 8 25 13 25 5 0 9
8 9 17 0 13 -3 14 -12 5 -22 -22 -32 -12 -11 11 33 36 36 47 18 61 -16 12 -16
15 8 53 15 23 37 45 49 49 13 3 36 20 51 36 32 34 47 31 23 -4 -28 -40 -17
-40 22 -1 64 66 112 102 126 97 8 -3 17 -1 21 5 3 6 16 11 27 11 12 0 29 6 37
14 17 15 102 46 126 46 26 0 26 -20 1 -32 -14 -6 -26 -17 -26 -24 0 -7 -8 -17
-17 -23 -10 -5 -14 -13 -10 -17 4 -4 13 -2 19 4 7 7 19 12 27 12 8 0 25 9 37
21 16 15 39 21 90 25 38 2 89 7 113 10 40 5 43 4 32 -10 -10 -12 -10 -19 3
-37 10 -15 12 -26 6 -35 -8 -8 -4 -11 15 -11 28 0 31 7 13 26 -11 10 -9 11 7
5 30 -11 65 -57 54 -70 -12 -14 40 -16 58 -2 6 5 14 5 17 0 3 -5 25 -6 49 -2
41 6 76 -8 60 -24 -4 -3 6 -6 20 -6 15 0 27 4 27 9 0 4 31 8 69 8 64 0 70 -2
73 -21 3 -22 24 -20 22 2 -1 6 2 12 7 12 5 0 9 -4 9 -10 0 -5 6 -10 14 -10 7
0 25 -6 39 -13 20 -11 23 -17 15 -25 -9 -9 -9 -12 1 -12 7 0 9 -4 6 -10 -3 -5
-15 -10 -26 -10 -10 0 -19 -5 -19 -11 0 -6 9 -8 22 -4 18 6 20 4 13 -11 -4
-11 -7 -27 -7 -36 0 -10 -6 -18 -14 -18 -8 0 -14 -7 -14 -15 0 -9 -8 -28 -17
-42 -10 -15 -16 -37 -15 -50 2 -13 -1 -23 -7 -23 -6 0 -8 -7 -4 -16 4 -10 -1
-17 -15 -20 -22 -6 -39 -61 -23 -77 6 -6 0 -19 -15 -36 -33 -35 -32 -54 1 -41
20 8 27 6 31 -5 7 -17 -4 -37 -16 -30 -5 3 -14 -3 -19 -14 -9 -16 -7 -21 11
-27 13 -4 24 -2 26 5 2 6 8 11 13 11 5 0 4 -9 -3 -19 -10 -16 -9 -23 5 -39 9
-10 17 -24 17 -30 0 -7 7 -12 16 -12 11 0 14 6 9 20 -4 14 -2 20 9 20 8 0 21
3 29 6 18 6 30 -33 14 -43 -7 -4 -2 -10 13 -13 14 -4 28 -2 32 4 5 7 13 5 25
-6 15 -16 15 -18 1 -18 -8 0 -18 -9 -21 -20 -3 -11 -12 -22 -21 -25 -9 -3 -23
-7 -32 -10 -14 -4 -14 -6 0 -21 9 -8 16 -24 16 -35 0 -10 4 -19 8 -19 14 0 35
48 29 64 -4 9 -2 16 3 16 5 0 12 -10 16 -22 4 -13 14 -28 23 -35 12 -10 13
-12 2 -13 -10 0 -12 -11 -8 -45 3 -32 0 -50 -10 -60 -10 -10 -10 -15 -3 -15 8
0 6 -10 -6 -27 -23 -36 -44 -52 -68 -53 -14 0 -16 -3 -7 -14 22 -27 -13 -78
-48 -69 -15 4 -21 1 -21 -10 0 -14 -35 -34 -52 -29 -5 1 -8 -4 -8 -11 0 -22
-52 -52 -94 -54 -28 -1 -46 -8 -58 -22 -9 -12 -20 -21 -25 -20 -22 4 -33 -3
-33 -20 0 -10 -8 -25 -17 -32 -15 -12 -16 -12 -10 4 9 25 -8 21 -26 -7 -9 -13
-28 -27 -43 -30 -36 -9 -43 1 -10 13 14 6 26 15 26 21 0 7 -6 8 -19 0 -25 -13
-34 -13 -26 0 3 6 -1 10 -9 10 -9 0 -16 -4 -16 -10 0 -5 5 -10 11 -10 6 0 8
-7 5 -16 -4 -9 -1 -23 6 -32 11 -13 9 -14 -16 -8 -19 5 -36 2 -54 -10 -23 -15
-24 -15 -19 0 17 40 19 51 6 31 -23 -36 -53 -55 -79 -50 -23 5 -24 4 -6 -9 13
-10 25 -12 41 -6 17 6 27 5 35 -5 10 -12 9 -16 -3 -21 -9 -3 -13 -13 -10 -25
3 -10 0 -19 -6 -19 -6 0 -11 9 -11 20 0 29 -34 26 -54 -5 -22 -34 -21 -48 3
-35 14 7 22 7 26 -1 4 -6 5 -11 4 -13 -5 -3 -300 -84 -359 -98 l-46 -11 10
-64 c9 -62 10 -63 46 -73 39 -10 79 -47 103 -95 8 -16 32 -84 52 -150 85 -272
161 -353 345 -370 47 -5 110 -8 140 -7 l55 1 -45 -14 c-25 -8 -52 -15 -61 -15
-18 0 -39 -40 -39 -72 0 -12 -7 -30 -17 -40 -15 -17 -15 -18 0 -18 22 0 17
-38 -7 -56 -12 -9 -16 -19 -11 -34 7 -22 7 -22 35 5 23 22 28 24 33 11 9 -22
-2 -48 -27 -68 -26 -22 -43 -23 -26 -3 7 9 10 18 7 21 -11 11 -25 -6 -33 -39
-3 -17 -15 -38 -26 -46 -13 -9 -16 -17 -10 -23 7 -7 19 -1 36 18 27 31 37 15
12 -21 -14 -21 -11 -135 4 -135 4 0 15 9 25 20 10 11 22 20 27 20 10 0 0 -42
-12 -50 -10 -7 7 -50 20 -50 7 0 9 -14 5 -37 -4 -28 -3 -33 4 -18 5 11 10 34
10 52 1 17 5 33 9 35 5 2 23 24 40 50 18 26 49 60 70 75 20 15 42 32 47 38 6
7 46 31 91 53 44 23 91 53 104 67 13 14 28 25 34 25 12 0 76 69 76 82 0 6 7 8
15 5 8 -4 17 -1 21 4 3 6 12 2 21 -10 13 -20 43 -29 43 -13 0 4 -12 20 -26 35
-21 25 -27 27 -41 16 -14 -12 -15 -11 -8 10 5 16 4 21 -3 17 -16 -9 -38 32
-41 74 -1 17 -4 19 -21 10 -16 -9 -18 -8 -14 5 4 8 1 15 -6 15 -21 0 -50 -20
-50 -35 0 -8 -4 -15 -10 -15 -5 0 -10 5 -10 10 0 16 -47 12 -54 -5 -8 -22 -44
-18 -51 5 -3 11 -3 24 0 30 4 6 -5 10 -20 10 -35 0 -23 17 18 25 105 21 270
89 301 124 27 30 39 26 59 -19 28 -66 58 -45 50 36 -4 42 1 65 27 125 17 41
45 130 61 199 39 166 49 185 99 198 22 5 38 6 35 2 -2 -4 7 -17 20 -30 20 -18
22 -26 13 -37 -9 -11 -9 -16 1 -22 14 -9 22 -22 76 -128 21 -40 44 -73 51 -73
8 0 14 -8 14 -18 0 -10 3 -22 7 -26 4 -4 8 -17 8 -29 4 -73 6 -79 25 -84 15
-4 17 -9 11 -21 -5 -10 -4 -23 2 -34 9 -14 9 -23 0 -38 -7 -10 -10 -26 -7 -34
3 -9 -3 -17 -17 -21 -15 -5 -18 -9 -9 -15 9 -5 9 -13 2 -26 -7 -12 -6 -23 2
-36 8 -13 8 -21 0 -26 -17 -11 -18 -108 -1 -115 12 -4 28 -51 26 -73 0 -4 5
-10 12 -14 18 -12 3 -40 -22 -40 -12 0 -51 16 -85 35 -85 46 -166 69 -218 61
-51 -8 -94 -27 -100 -43 -7 -17 48 -55 69 -47 23 9 100 -33 116 -63 12 -21 11
-26 -3 -34 -10 -5 -14 -17 -11 -28 3 -13 -2 -21 -16 -26 -17 -5 -20 -12 -15
-33 4 -20 3 -23 -5 -12 -11 17 -16 14 -26 -18 -4 -15 -3 -22 5 -20 7 2 15 -3
18 -11 3 -10 0 -12 -11 -8 -9 3 -18 1 -21 -6 -5 -9 -7 -9 -12 1 -9 19 -52 14
-64 -8 -6 -11 -9 -24 -6 -28 3 -4 1 -14 -5 -22 -7 -12 -9 -12 -9 3 0 28 -25
14 -28 -16 -2 -14 -14 -36 -27 -49 -29 -27 -31 -38 -9 -38 8 0 12 -4 9 -10 -3
-5 1 -10 9 -10 9 0 16 -4 16 -9 0 -23 -14 -41 -30 -41 -11 0 -21 -4 -24 -9
-10 -16 -114 -23 -151 -11 -27 9 -35 17 -35 35 0 28 -33 39 -80 25 -19 -5 -36
-7 -39 -5 -2 3 -13 -3 -24 -12 -14 -14 -34 -18 -81 -16 l-61 2 -3 -59 c-1 -32
2 -62 8 -65 5 -3 10 -16 10 -29 0 -12 3 -26 7 -29 4 -4 14 -29 23 -55 10 -29
22 -47 32 -47 9 0 25 -8 35 -18 11 -9 23 -17 26 -17 18 0 50 46 50 72 0 15 2
26 5 23 5 -5 22 13 39 40 6 11 17 19 23 17 19 -4 38 16 45 48 7 31 19 38 81
44 21 3 88 10 148 17 82 9 110 9 115 0 4 -6 15 -9 24 -6 25 10 59 -13 52 -35
-5 -15 0 -19 22 -22 23 -2 28 -8 27 -29 -1 -32 -32 -79 -51 -79 -12 0 -14 -9
-10 -37 4 -33 -12 -82 -41 -123 -5 -7 -22 24 -19 35 4 12 -17 35 -32 35 -17 0
-13 11 11 31 11 11 19 22 16 25 -10 10 -48 -39 -48 -62 0 -12 -6 -24 -12 -27
-7 -2 -10 -8 -5 -12 4 -5 14 0 22 11 14 18 15 17 8 -11 -3 -16 -17 -38 -29
-48 -22 -17 -23 -43 -2 -58 11 -7 -18 -76 -34 -82 -7 -2 -10 -7 -6 -11 3 -4
17 0 30 8 14 9 27 13 30 10 8 -7 -8 -64 -22 -78 -20 -20 -9 -27 15 -9 13 10
25 26 25 36 0 10 4 16 9 12 5 -3 12 3 15 12 3 11 4 8 3 -7 -2 -21 2 -24 23
-22 34 5 36 9 17 30 -36 40 -12 43 33 5 27 -22 29 -28 16 -35 -26 -15 -18 -29
9 -16 26 11 30 19 18 32 -13 13 -10 51 6 63 23 17 26 16 40 -13 9 -21 16 -25
39 -20 15 3 21 3 15 0 -18 -8 -16 -24 3 -24 8 0 13 -4 10 -9 -4 -5 0 -12 6
-14 10 -4 10 -8 -2 -16 -8 -5 -17 -8 -21 -5 -4 2 -14 -7 -23 -21 -18 -28 -18
-29 18 -15 24 9 26 8 26 -20 0 -19 -7 -33 -19 -40 -26 -13 -31 -13 -31 4 0 12
-6 13 -31 4 -28 -10 -30 -13 -24 -48 4 -23 2 -41 -4 -45 -6 -3 -11 1 -11 9 0
9 -4 16 -10 16 -5 0 -7 7 -3 16 5 14 3 15 -15 5 -25 -13 -27 -22 -10 -39 9 -9
9 -12 0 -12 -7 0 -12 -11 -12 -25 0 -29 -14 -33 -30 -7 -11 16 -11 16 -6 -1 8
-26 -5 -77 -20 -77 -19 0 -27 -19 -15 -34 9 -11 5 -16 -19 -24 -20 -8 -30 -18
-30 -31 0 -12 -4 -21 -9 -21 -5 0 -8 -11 -7 -25 0 -14 6 -25 12 -25 7 0 19
-11 28 -25 15 -23 9 -35 -8 -17 -4 4 -24 8 -44 9 -74 4 -190 25 -219 41 -26
15 -63 16 -63 2 0 -5 6 -10 13 -10 16 0 47 -36 47 -54 0 -7 7 -19 15 -26 13
-10 13 -15 3 -21 -9 -6 -7 -14 11 -33 15 -16 21 -31 17 -44 -7 -21 12 -41 23
-25 3 6 17 0 31 -13 20 -20 22 -24 7 -24 -9 0 -17 4 -17 10 0 5 -6 7 -14 4
-11 -4 -9 -11 10 -31 12 -13 28 -22 34 -18 17 10 52 -5 46 -21 -3 -8 1 -14 10
-14 11 0 15 6 11 20 -11 42 32 35 54 -8 7 -15 21 -38 31 -51 10 -13 18 -32 18
-41 0 -10 7 -23 15 -30 8 -7 13 -16 10 -20 -3 -5 3 -15 14 -22 14 -10 18 -24
17 -60 -1 -51 -3 -55 -26 -58 -45 -7 -61 1 -75 34 -8 18 -22 36 -30 40 -12 4
-15 13 -10 35 5 22 2 32 -11 39 -10 6 -15 16 -11 25 4 10 -1 18 -14 22 -10 4
-19 15 -19 27 0 14 -5 18 -16 14 -9 -3 -21 -6 -27 -6 -8 0 -7 -4 1 -12 24 -24
11 -29 -19 -7 -31 22 -31 22 -25 1 6 -17 3 -20 -16 -18 -13 1 -29 5 -34 9 -6
3 -16 -5 -23 -19 -15 -33 -14 -44 4 -44 9 0 12 6 8 16 -4 12 -1 15 13 12 20
-3 33 -48 15 -48 -7 0 -9 -10 -6 -23 4 -15 1 -28 -9 -36 -20 -17 -20 -31 -1
-31 8 0 15 -7 15 -15 0 -10 -10 -14 -37 -13 -20 1 -39 -4 -41 -10 -7 -22 -38
-12 -56 19 -14 24 -20 28 -32 18 -13 -11 -18 -6 -15 14 1 4 -4 7 -11 6 -26 -3
-38 1 -38 14 0 20 -82 81 -109 82 -20 0 -26 5 -25 21 0 16 -5 20 -21 16 -12
-2 -27 4 -34 12 -8 9 -21 16 -31 16 -24 0 -30 10 -18 30 9 14 6 24 -20 51 -29
31 -32 32 -32 12 0 -12 5 -25 10 -28 6 -3 10 -10 10 -15 0 -14 -33 1 -48 22
-7 10 -17 18 -23 18 -15 0 -10 -28 6 -38 16 -9 11 -42 -7 -42 -11 0 -36 58
-45 103 l-6 32 21 -25 c17 -21 23 -23 34 -12 11 11 10 15 -3 25 -9 7 -14 18
-12 25 6 16 33 15 33 -2 0 -7 6 -19 14 -25 11 -9 15 -7 19 9 3 11 1 18 -4 14
-5 -3 -14 6 -21 21 -8 18 -17 24 -30 19 -13 -4 -18 0 -18 12 0 9 -23 41 -51
71 -28 30 -49 60 -46 67 4 10 0 12 -14 9 -12 -4 -19 0 -19 9 0 8 -9 23 -20 33
-25 23 -25 15 -1 -33 10 -20 16 -44 14 -52 -3 -11 -2 -12 4 -2 7 9 18 2 43
-25 26 -31 30 -39 16 -41 -19 -4 -21 -33 -4 -50 17 -17 28 -15 28 4 0 8 5 12
11 9 7 -5 3 -16 -12 -31 l-22 -23 -27 19 c-43 31 -67 24 -35 -9 88 -93 94
-102 55 -81 -13 7 -21 7 -25 0 -3 -5 1 -10 11 -10 14 0 15 -2 3 -18 -12 -15
-12 -16 1 -6 19 14 73 28 68 17 -2 -4 -10 -23 -17 -40 -14 -36 -31 -42 -51
-18 -17 21 -37 19 -43 -5 -3 -12 0 -20 8 -20 7 0 16 -7 19 -16 5 -14 2 -15
-21 -9 -16 4 -53 7 -83 6 -51 -1 -54 0 -36 14 16 12 17 18 7 28 -10 9 -14 8
-22 -5 -13 -24 -45 -23 -52 1 -3 14 -11 17 -29 14 -16 -3 -40 4 -64 19 -22 14
-47 28 -58 31 -44 17 -207 158 -251 217 -20 28 -50 77 -66 110 -26 54 -29 70
-28 158 0 53 3 129 7 167 4 39 6 80 4 93 -4 29 -25 24 -27 -6 -1 -13 -11 -36
-23 -52 -12 -16 -22 -34 -22 -41 0 -6 -6 -9 -14 -6 -24 9 -28 -43 -11 -128 21
-99 59 -183 117 -260 48 -64 276 -295 290 -295 5 0 27 -17 51 -38 45 -41 94
-79 161 -127 60 -43 115 -95 121 -115 3 -10 19 -20 36 -24 24 -4 30 -10 25
-22 -5 -13 -4 -14 7 -6 16 14 27 6 27 -20 0 -11 7 -18 18 -18 10 0 28 -11 40
-25 12 -14 28 -25 35 -25 7 0 19 -9 27 -20 8 -11 22 -20 32 -20 11 0 15 -5 12
-15 -5 -11 1 -15 19 -15 16 0 43 -18 77 -50 45 -42 51 -51 40 -65 -10 -12 -10
-15 4 -15 9 0 16 4 16 10 0 5 15 8 33 6 23 -2 36 -11 45 -30 7 -14 20 -26 28
-26 14 0 19 -17 16 -52 -2 -22 11 -23 28 -3 7 8 16 15 21 15 16 0 9 -30 -16
-69 -32 -47 -38 -77 -24 -118 14 -42 22 -41 39 3 8 20 25 44 37 54 13 10 30
34 38 54 9 20 18 36 21 36 4 0 28 -16 54 -35 56 -41 91 -114 71 -147 -14 -23
-4 -23 37 2 43 26 44 52 0 43 -38 -8 -31 10 14 33 31 16 47 9 48 -21 0 -6 9
-16 20 -23 12 -7 17 -18 14 -29 -5 -17 -5 -17 6 0 17 26 25 21 51 -27 14 -27
28 -42 36 -39 19 8 16 -17 -12 -92 -14 -38 -37 -107 -51 -154 -13 -47 -29 -88
-35 -92 -8 -5 -8 -8 0 -13 13 -9 15 -43 2 -50 -5 -4 -21 -7 -35 -8 -33 -3 -33
-14 -1 -22 33 -8 35 -46 2 -46 -13 0 -32 7 -43 15 -10 8 -29 15 -42 15 -17 0
-24 7 -29 30 -6 31 -48 73 -91 93 -13 6 -45 31 -71 55 -25 24 -58 48 -73 54
-16 5 -28 13 -28 17 0 5 -15 24 -32 43 -18 20 -50 55 -71 77 -20 23 -45 59
-54 81 -10 21 -25 41 -35 43 -10 3 -21 13 -24 24 -14 38 -163 203 -184 203 -4
0 -13 7 -20 15 -7 8 -21 15 -31 15 -11 0 -16 5 -13 13 4 12 -87 107 -104 107
-4 0 -15 12 -25 28 -22 36 -74 92 -86 92 -5 0 -12 13 -16 29 -9 43 -39 74 -64
66 -25 -7 -26 -25 -5 -80 8 -22 16 -48 17 -58 1 -10 9 -22 17 -27 8 -5 11 -10
6 -10 -5 0 -1 -9 8 -19 9 -10 21 -32 25 -47 4 -16 11 -27 16 -24 11 7 30 -39
33 -82 1 -11 7 -15 17 -12 10 4 15 0 15 -14 0 -11 3 -27 6 -36 4 -10 -5 -22
-28 -36 -20 -12 -27 -20 -16 -20 9 0 20 5 23 10 11 17 43 11 50 -10 7 -22 -10
-60 -27 -60 -6 0 -4 8 5 18 21 23 21 32 2 32 -14 0 -35 -56 -35 -93 0 -10 -7
-20 -15 -23 -8 -4 -15 -12 -15 -19 0 -7 -9 -24 -20 -38 -11 -14 -20 -38 -20
-54 l1 -28 28 31 c16 18 38 35 50 39 18 5 21 2 21 -22 0 -15 -4 -45 -9 -65 -6
-26 -5 -42 4 -55 12 -16 17 -14 69 22 61 42 80 40 54 -5 -15 -27 -15 -28 0
-24 9 3 -1 -5 -23 -17 -24 -13 -35 -24 -26 -27 7 -2 17 2 22 9 6 10 8 7 6 -9
0 -12 -5 -22 -9 -22 -8 0 -155 97 -261 172 -31 23 -60 38 -64 34 -4 -3 -2 -11
4 -17 6 -6 9 -18 6 -25 -3 -8 5 -18 20 -23 20 -8 24 -15 20 -33 -3 -13 -9 -27
-14 -33 -4 -6 6 -11 28 -13 31 -2 34 0 23 13 -7 9 -11 18 -8 20 11 11 30 -25
23 -42 -5 -10 -7 -22 -6 -26 2 -11 -40 -46 -56 -47 -6 0 -17 30 -24 69 -12 69
-12 70 -41 64 -28 -5 -39 9 -17 23 7 4 2 11 -13 18 -12 6 -24 21 -26 33 -4 30
-61 41 -83 14 -25 -31 -49 -9 -49 44 0 36 -4 45 -17 46 -11 0 -13 3 -5 6 6 2
12 11 12 18 0 7 12 16 26 19 l26 7 -41 32 c-22 17 -41 35 -41 39 0 4 -6 8 -14
8 -8 0 -17 6 -20 13 -3 6 -3 2 0 -10 5 -22 4 -22 -23 -8 -15 8 -34 15 -42 15
-9 0 -10 4 -4 13 8 10 9 21 4 43 0 3 -11 -2 -23 -10 -31 -22 -32 -21 -52 24
-9 22 -29 45 -44 52 -19 9 -28 24 -34 53 -5 22 -13 44 -18 49 -6 6 -10 16 -10
23 0 8 -9 23 -19 34 l-19 21 -11 -21 c-10 -17 -9 -21 4 -21 25 0 18 -47 -12
-74 -22 -20 -24 -27 -14 -39 9 -11 9 -17 1 -22 -8 -5 -6 -13 6 -26 9 -10 13
-19 8 -20 -5 0 1 -4 14 -10 13 -5 21 -13 18 -18 -8 -12 43 -63 78 -79 16 -7
30 -21 33 -32 3 -11 12 -20 20 -20 10 0 13 -6 9 -16 -4 -10 1 -25 10 -36 17
-17 16 -20 -5 -49 -27 -37 -23 -47 9 -19 29 25 33 25 20 1 -14 -27 -13 -30 13
-24 18 5 20 3 10 -8 -21 -22 -15 -31 17 -24 22 5 32 3 36 -8 3 -8 16 -18 30
-21 13 -4 24 -11 24 -16 0 -6 6 -10 14 -10 7 0 27 -7 42 -15 16 -8 44 -15 62
-15 17 0 32 -4 32 -10 0 -5 -7 -10 -16 -10 -11 0 -14 -5 -10 -16 3 -9 6 -18 6
-20 0 -2 8 -4 19 -4 10 0 24 -7 31 -15 7 -8 22 -15 34 -15 15 0 17 -3 8 -9 -8
-4 -13 -11 -13 -15 3 -17 -1 -18 -18 -2 -10 9 -22 16 -27 15 -20 -3 -34 2 -34
12 0 6 -7 18 -16 26 -12 12 -20 14 -33 6 -11 -7 -21 -7 -32 0 -21 13 -49 2
-49 -19 0 -11 5 -14 16 -10 22 8 40 -4 23 -15 -8 -5 -15 -25 -16 -46 -3 -91
-12 -136 -27 -145 -9 -5 -15 -20 -14 -33 2 -19 8 -25 26 -25 13 0 21 4 18 9
-3 4 1 16 8 26 16 22 39 11 31 -16 -5 -15 -1 -19 15 -19 23 0 40 34 40 79 0
15 9 38 20 51 29 34 17 36 -24 5 -19 -14 -37 -39 -41 -55 -5 -21 -11 -27 -26
-23 -23 6 -27 64 -5 82 10 8 12 21 8 39 -4 15 -7 34 -7 42 1 20 36 60 52 60
16 0 16 -9 -2 -40 -20 -36 -18 -41 11 -29 15 5 30 7 33 3 3 -4 0 -9 -6 -11
-15 -5 -17 -33 -3 -33 6 0 10 3 10 8 0 4 12 12 26 19 23 11 30 9 55 -10 15
-12 28 -29 28 -38 1 -9 8 -20 17 -23 9 -4 14 -9 11 -13 -4 -3 -13 0 -21 6 -10
8 -16 9 -21 1 -3 -6 -11 -8 -16 -5 -17 11 -46 -30 -52 -73 l-5 -42 403 1 403
0 23 25 c31 33 52 32 39 -1 l-10 -25 80 0 c70 0 80 2 80 18 0 10 5 23 11 29 7
7 7 23 -1 53 -13 49 -8 70 19 70 12 0 20 -9 23 -25 4 -17 1 -25 -9 -25 -8 0
-13 -5 -11 -11 4 -12 88 -20 88 -9 0 3 -5 11 -12 18 -9 9 -9 12 3 12 22 0 43
-27 65 -82 l19 -48 1806 0 1807 0 22 59 c12 33 31 68 42 78 20 18 20 18 4 -20
-9 -20 -23 -53 -31 -73 -33 -77 17 -40 59 43 26 52 35 123 16 123 -7 0 -7 6 0
19 21 40 12 128 -20 191 -51 101 -117 212 -222 370 -35 52 -77 121 -93 154
-19 37 -73 104 -145 181 -135 143 -171 175 -198 175 -34 0 -51 11 -45 28 4 13
2 14 -4 4 -12 -16 -104 -7 -147 16 -40 20 -215 65 -371 96 -71 14 -148 30
-170 35 -22 5 -55 7 -74 4 -25 -4 -38 -1 -47 12 -16 22 -53 14 -101 -22 -32
-25 -59 -25 -35 -1 7 7 12 20 12 30 0 15 -3 16 -26 6 -19 -9 -39 -9 -85 1 -33
6 -64 9 -69 6 -6 -3 -10 0 -10 8 0 9 15 16 41 20 23 3 45 10 48 15 10 15 111
2 111 -15 0 -10 4 -11 19 -3 22 11 64 13 74 3 4 -3 17 -7 30 -9 91 -9 193 -26
252 -44 99 -29 105 -31 150 -37 22 -3 59 -11 83 -19 83 -27 81 -6 -5 32 -63
28 -63 28 -63 9 0 -20 -33 -12 -113 26 -32 15 -86 30 -120 34 -34 4 -74 13
-88 21 -15 7 -44 20 -65 27 -22 8 -47 18 -58 22 -18 8 -18 7 -1 -18 26 -40 0
-35 -64 13 -62 47 -74 49 -65 15 9 -35 -6 -31 -45 10 -18 20 -41 40 -52 45
-15 9 -18 8 -12 -7 3 -10 11 -24 16 -31 20 -25 -3 -24 -37 2 -19 14 -45 26
-57 26 -12 0 -19 3 -16 7 9 8 -22 43 -38 43 -13 0 -14 -39 -1 -58 5 -8 4 -18
-3 -25 -18 -18 -59 10 -85 56 -22 41 -53 57 -146 77 -25 6 -79 19 -120 30
-150 39 -236 58 -290 64 l-55 7 53 -24 c29 -13 59 -30 67 -38 12 -12 11 -16
-11 -26 -21 -10 -28 -8 -52 11 -15 13 -40 26 -57 30 -35 9 -65 33 -65 53 0 7
-4 13 -9 13 -5 0 -27 22 -49 50 l-40 50 38 72 c21 40 48 112 60 161 12 48 35
127 52 175 16 48 56 186 88 307 32 121 70 263 84 315 14 52 34 167 46 255 11
88 29 216 40 285 11 69 24 177 30 240 19 213 29 258 75 345 55 103 69 149 100
325 33 190 48 234 91 267 33 25 35 29 32 82 -2 44 -7 58 -23 66 -11 5 -61 34
-111 62 -50 29 -138 74 -195 99 -57 25 -113 54 -124 64 -11 9 -30 23 -42 29
-21 10 -23 19 -23 81 0 38 5 72 10 75 6 3 10 37 10 76 0 53 3 69 14 69 11 0
13 7 7 28 -4 15 -6 50 -4 77 2 28 4 65 4 83 -1 17 3 32 8 32 10 0 9 85 -1 96
-15 15 -8 24 11 14 39 -20 40 -9 7 55 -32 61 -33 65 -13 59 19 -6 20 -5 9 8
-15 19 -54 173 -50 202 1 11 -3 35 -9 51 -6 17 -19 57 -28 90 -9 33 -25 81
-36 107 -10 26 -19 57 -19 70 0 39 -12 68 -26 68 -8 0 -14 4 -14 9 0 5 -3 16
-6 25 -13 35 14 12 66 -55 56 -72 81 -81 35 -13 -18 26 -25 48 -22 67 2 15 0
30 -5 33 -4 3 -8 26 -8 52 0 26 -7 56 -15 66 -8 11 -15 30 -15 43 0 13 -4 31
-9 41 -4 9 -19 40 -32 68 -24 53 -69 98 -69 70 0 -8 -4 -17 -9 -21 -12 -7 -61
41 -61 60 0 18 -17 20 -22 4 -2 -7 -19 1 -40 20 -20 17 -42 31 -50 31 -9 0
-36 19 -61 43 -54 49 -81 67 -103 67 -23 0 -74 39 -74 56 0 10 -7 13 -25 8
-22 -6 -36 4 -102 71 -47 47 -78 72 -83 65 -8 -13 -80 -11 -99 4 -11 9 -8 12
15 17 l29 7 -33 1 c-21 1 -35 -4 -38 -14 -6 -15 -46 -22 -42 -7 4 10 -55 92
-66 92 -5 0 -20 12 -34 28 -51 55 -83 73 -122 66 -19 -4 -46 -12 -60 -19 -20
-10 -36 -9 -80 1 -71 17 -80 17 -80 0 0 -8 -6 -16 -14 -19 -19 -7 -88 14 -101
30 -5 7 -38 18 -72 23 -34 6 -75 12 -90 15 -15 2 -50 9 -77 15 -26 5 -52 8
-56 5 -10 -6 -73 25 -83 42 -9 15 -51 16 -84 3z m-296 -237 c-9 -9 -19 -14
-23 -11 -10 10 6 28 24 28 15 0 15 -1 -1 -17z m1240 -28 c-15 -16 -19 -13 -11
9 3 9 10 13 15 10 5 -3 3 -11 -4 -19z m-1897 -13 c0 -13 -12 -22 -22 -16 -10
6 -1 24 13 24 5 0 9 -4 9 -8z m109 -24 c-10 -38 -23 -53 -38 -44 -14 9 -3 37
23 58 12 10 22 18 23 18 1 0 -3 -14 -8 -32z m661 -28 c-8 -5 -28 -10 -45 -10
-23 0 -27 3 -15 10 8 5 29 10 45 10 23 0 27 -3 15 -10z m426 -3 c7 -6 -108
-26 -118 -20 -14 8 -9 21 10 26 21 6 101 2 108 -6z m-1006 -7 c0 -5 -4 -10 -9
-10 -6 0 -13 5 -16 10 -3 6 1 10 9 10 9 0 16 -4 16 -10z m334 -4 c-10 -8 -21
-12 -24 -10 -5 6 21 24 34 24 6 0 1 -6 -10 -14z m-519 -36 c-10 -11 -23 -20
-29 -20 -6 1 0 10 13 20 30 26 39 26 16 0z m1845 -21 c-11 -38 -15 -43 -29
-34 -18 10 -13 33 11 49 12 9 23 16 25 16 1 0 -2 -14 -7 -31z m-1650 12 c0 -6
-4 -13 -10 -16 -5 -3 -10 1 -10 9 0 9 5 16 10 16 6 0 10 -4 10 -9z m274 -23
c-3 -4 -11 -5 -19 -1 -21 7 -19 12 4 10 11 0 18 -5 15 -9z m-309 -8 c3 -5 -1
-10 -9 -10 -9 0 -16 5 -16 10 0 6 4 10 9 10 6 0 13 -4 16 -10z m265 -15 c-7
-8 -16 -15 -21 -15 -5 0 -9 7 -9 15 0 9 9 15 21 15 18 0 19 -2 9 -15z m1455
-5 c3 -5 -1 -10 -9 -10 -9 0 -16 5 -16 10 0 6 4 10 9 10 6 0 13 -4 16 -10z
m-1208 -26 c-3 -3 -12 -4 -19 -1 -8 3 -5 6 6 6 11 1 17 -2 13 -5z m740 -5
c-14 -8 -22 -8 -30 0 -8 8 -3 11 19 11 25 -1 27 -2 11 -11z m-1247 -3 c0 -3
-4 -8 -10 -11 -5 -3 -10 -1 -10 4 0 6 5 11 10 11 6 0 10 -2 10 -4z m-35 -26
c-3 -5 -24 -15 -45 -21 -22 -7 -37 -15 -35 -20 3 -4 0 -11 -6 -15 -8 -5 -9 -3
-4 6 5 8 3 11 -6 8 -8 -3 -14 -9 -14 -14 -1 -22 -57 -64 -87 -64 -18 0 5 22
38 36 19 8 34 21 34 29 0 8 24 26 53 39 54 27 82 33 72 16z m419 -14 c-6 -16
-24 -23 -24 -8 0 10 22 33 27 28 2 -2 1 -11 -3 -20z m358 -8 c-7 -7 -12 -8
-12 -2 0 14 12 26 19 19 2 -3 -1 -11 -7 -17z m1523 2 c3 -5 1 -10 -4 -10 -6 0
-11 5 -11 10 0 6 2 10 4 10 3 0 8 -4 11 -10z m-2600 -48 c-27 -26 -67 -67 -87
-91 -21 -25 -40 -42 -43 -39 -10 10 43 79 82 107 21 16 47 38 57 50 11 11 24
21 30 21 6 0 -11 -22 -39 -48z m401 9 c-21 -23 -20 -30 4 -24 11 3 20 3 20 0
0 -21 -48 -79 -87 -107 -49 -34 -153 -138 -153 -152 0 -4 -7 -8 -15 -8 -18 0
-18 1 -2 31 15 29 148 159 163 159 6 0 21 12 35 27 l24 27 -50 -28 c-27 -16
-60 -39 -71 -53 -12 -14 -27 -22 -33 -18 -7 3 -27 -3 -46 -14 -19 -11 -35 -16
-35 -10 0 5 8 13 18 16 20 8 76 64 77 78 0 5 17 18 38 29 20 11 33 22 28 25
-13 8 21 48 45 53 10 3 27 0 37 -5 17 -8 17 -10 3 -26z m529 -9 c-7 -7 -45 29
-45 41 0 6 11 0 25 -13 14 -13 23 -26 20 -28z m-799 12 c-22 -16 -36 -18 -36
-6 0 11 43 32 50 25 3 -3 -4 -11 -14 -19z m1669 -43 c-7 -6 -65 50 -65 63 0 5
16 -5 35 -24 19 -18 32 -36 30 -39z m-925 39 c0 -5 -7 -10 -15 -10 -8 0 -15 5
-15 10 0 6 7 10 15 10 8 0 15 -4 15 -10z m-1010 -9 c0 -5 -7 -12 -16 -15 -14
-5 -15 -4 -4 9 14 17 20 19 20 6z m830 -6 c5 3 11 1 14 -4 3 -5 -33 -28 -79
-52 -47 -23 -84 -48 -82 -53 4 -11 -45 -46 -63 -46 -6 0 -8 12 -5 28 5 22 4
24 -5 10 -6 -10 -18 -18 -25 -18 -8 0 -14 -6 -12 -12 1 -7 -7 -13 -18 -14 -30
-1 -68 -15 -87 -32 -11 -9 -18 -10 -18 -4 0 6 6 15 14 19 7 4 18 18 25 31 6
12 21 22 31 22 11 0 20 4 20 9 0 5 17 19 38 32 20 12 45 29 55 38 21 17 83 41
111 41 29 0 4 -24 -59 -56 -30 -15 -55 -31 -55 -36 0 -14 16 -9 34 11 10 11
29 22 43 26 15 3 38 15 51 26 14 10 31 19 38 19 8 0 13 3 13 8 -3 16 3 26 8
14 2 -6 9 -10 13 -7z m1175 -75 c6 -34 6 -34 -8 -10 -8 14 -24 43 -37 65 l-23
40 31 -30 c16 -17 33 -46 37 -65z m-960 50 c-3 -5 -15 -10 -26 -10 -10 0 -19
5 -19 10 0 6 12 10 26 10 14 0 23 -4 19 -10z m49 1 c3 -5 -1 -11 -9 -15 -15
-6 -29 7 -18 18 9 9 21 8 27 -3z m829 -45 c16 -23 17 -27 4 -17 -10 8 -28 28
-40 45 -16 23 -17 27 -4 17 10 -8 28 -28 40 -45z m-1708 34 c-3 -5 -10 -10
-16 -10 -5 0 -9 5 -9 10 0 6 7 10 16 10 8 0 12 -4 9 -10z m140 0 c3 -5 -1 -10
-10 -10 -9 0 -13 5 -10 10 3 6 8 10 10 10 2 0 7 -4 10 -10z m1145 -15 c0 -8
-4 -15 -9 -15 -5 0 -11 7 -15 15 -3 9 0 15 9 15 8 0 15 -7 15 -15z m-1520 -13
c0 -4 -13 -22 -30 -40 -16 -18 -30 -36 -30 -40 0 -4 -25 -34 -55 -67 -30 -32
-55 -54 -55 -49 1 21 53 92 107 147 59 59 63 62 63 49z m995 -1 c-3 -5 -20
-12 -38 -16 -63 -13 -103 -55 -53 -55 30 0 42 -15 20 -24 -28 -11 -54 -6 -54
9 0 22 -21 18 -27 -5 -3 -11 -10 -20 -15 -20 -5 0 -8 3 -6 8 24 49 35 61 66
73 19 8 45 19 56 26 26 14 59 16 51 4z m210 -1 c7 -12 -2 -12 -30 0 -19 8 -19
9 2 9 12 1 25 -3 28 -9z m-1045 -19 c-12 -23 -30 -36 -30 -22 0 10 27 41 36
41 3 0 0 -9 -6 -19z m1469 2 c10 -10 24 -29 31 -43 l13 -24 -27 18 c-36 23
-42 16 -11 -14 14 -13 25 -28 25 -33 0 -19 -52 38 -66 72 -8 18 -14 35 -14 37
0 11 33 2 49 -13z m-1419 3 c0 -3 -4 -8 -10 -11 -5 -3 -10 -1 -10 4 0 6 5 11
10 11 6 0 10 -2 10 -4z m-100 -56 c0 -5 -10 -15 -22 -21 -23 -12 -23 -12 -4
10 21 23 26 26 26 11z m56 -3 c-10 -7 -31 -22 -46 -34 -15 -13 -31 -23 -34
-23 -11 0 31 42 56 55 29 16 49 18 24 2z m826 -7 c12 -11 19 -22 16 -25 -5 -6
-48 28 -48 39 0 11 10 6 32 -14z m-1207 -20 c-10 -11 -20 -18 -23 -15 -7 6 18
35 31 35 5 0 2 -9 -8 -20z m205 -9 c0 -33 -16 -49 -33 -32 -7 7 -7 18 1 36 16
34 32 32 32 -4z m1275 9 c3 -5 1 -10 -4 -10 -6 0 -11 5 -11 10 0 6 2 10 4 10
3 0 8 -4 11 -10z m-295 -10 c0 -5 9 -10 20 -10 11 0 20 -7 20 -15 0 -8 5 -15
11 -15 6 0 8 7 5 15 -8 22 35 37 50 17 8 -11 21 -13 52 -7 23 4 42 11 42 16 0
5 12 9 26 9 22 0 25 -2 14 -15 -7 -8 -18 -15 -25 -15 -7 0 -18 -6 -24 -14 -9
-11 -7 -15 9 -19 11 -3 20 -10 20 -15 0 -6 -8 -8 -18 -5 -10 2 -24 -2 -31 -11
-10 -12 -16 -13 -32 -3 -10 6 -19 18 -19 25 0 9 -6 12 -17 8 -9 -4 -20 -1 -24
6 -5 8 -20 -1 -50 -30 -40 -41 -70 -52 -36 -14 10 10 17 23 17 29 0 6 3 13 8
16 4 2 1 2 -5 1 -7 -2 -13 4 -13 12 0 13 -6 15 -27 9 -27 -6 -27 -6 -9 14 20
23 36 27 36 11z m-986 -65 c-19 -29 -9 -33 19 -7 16 13 19 14 15 2 -2 -8 -26
-31 -52 -51 -26 -20 -47 -40 -46 -44 3 -9 -51 -65 -63 -65 -5 0 5 19 22 42 17
23 31 47 31 53 0 13 73 95 84 95 3 0 -1 -11 -10 -25z m231 5 c-3 -5 -12 -10
-18 -10 -7 0 -6 4 3 10 19 12 23 12 15 0z m45 -40 c-14 -11 -33 -26 -43 -35
-10 -9 -38 -27 -62 -41 l-45 -24 30 44 c28 41 68 69 115 78 31 7 33 -2 5 -22z
m797 -10 c19 -11 35 -15 38 -10 12 19 61 10 86 -16 13 -14 31 -23 39 -21 9 2
20 -1 26 -7 35 -38 -51 -51 -88 -14 -14 14 -23 18 -26 10 -2 -7 -11 -12 -19
-12 -11 0 -8 -7 11 -25 15 -14 35 -25 45 -25 9 0 30 -13 46 -30 16 -16 24 -30
18 -30 -6 0 -16 6 -22 14 -14 17 -61 27 -61 14 0 -6 10 -18 23 -29 12 -10 17
-18 11 -19 -6 0 -31 19 -55 43 -24 23 -59 51 -78 62 -19 11 -34 25 -33 30 0 6
-6 20 -14 33 -17 26 -12 29 11 6 23 -24 30 -10 10 20 -21 31 -11 33 32 6z
m-1056 -23 c-10 -9 -11 -8 -5 6 3 10 9 15 12 12 3 -3 0 -11 -7 -18z m339 -12
c-7 -9 -15 -13 -18 -10 -3 2 1 11 8 20 7 9 15 13 18 10 3 -2 -1 -11 -8 -20z
m-100 -9 c0 -17 -26 -39 -40 -34 -6 2 -4 12 5 26 18 25 35 29 35 8z m-270 -41
c-7 -8 -16 -12 -22 -9 -5 3 -28 -15 -50 -40 -23 -25 -47 -46 -54 -46 -6 0 -14
-7 -18 -15 -3 -8 -14 -15 -25 -15 -31 0 -16 23 30 49 22 13 54 38 71 57 17 19
39 34 50 34 10 0 19 8 19 18 1 16 2 16 6 -1 3 -10 -1 -24 -7 -32z m1025 15 c3
-5 1 -10 -4 -10 -6 0 -11 5 -11 10 0 6 2 10 4 10 3 0 8 -4 11 -10z m-1314 -53
c-8 -8 -11 -7 -11 4 0 20 13 34 18 19 3 -7 -1 -17 -7 -23z m666 1 c-3 -8 -6
-5 -6 6 -1 11 2 17 5 13 3 -3 4 -12 1 -19z m-420 -50 c-18 -20 -35 -38 -39
-38 -17 0 -6 27 23 64 23 26 34 34 40 25 4 -8 -5 -27 -24 -51z m1070 36 c35
-17 71 -59 60 -71 -4 -3 -13 -1 -20 5 -8 7 -17 9 -20 5 -4 -3 -15 3 -25 15
-10 11 -31 24 -48 28 l-29 7 22 -22 c12 -11 27 -21 33 -21 15 0 13 -17 -2 -17
-7 0 -26 -4 -42 -8 -25 -7 -28 -6 -22 12 5 17 1 22 -24 26 -34 7 -41 27 -10
27 11 0 23 7 26 15 8 20 57 19 101 -1z m-969 -22 c-12 -15 -38 -36 -55 -45
-29 -14 -33 -15 -33 -1 0 8 20 23 44 34 24 10 47 23 50 29 4 6 10 11 12 11 3
0 -5 -13 -18 -28z m341 -9 c-13 -21 -28 -47 -33 -58 -21 -39 -32 -44 -44 -24
-15 24 -15 29 2 29 8 0 25 15 37 33 20 30 48 57 57 57 2 0 -7 -17 -19 -37z
m-273 -30 c-10 -10 -19 5 -10 18 6 11 8 11 12 0 2 -7 1 -15 -2 -18z m660 19
c-5 -9 28 -42 43 -42 5 0 9 -11 9 -25 0 -15 -6 -25 -14 -25 -8 0 -14 -4 -14
-10 0 -5 -9 -10 -21 -10 -13 0 -23 -10 -30 -30 -11 -31 -29 -41 -29 -16 0 9
-8 12 -27 8 -24 -5 -26 -3 -15 10 7 9 20 14 30 12 20 -5 50 12 39 22 -3 4 -13
1 -22 -6 -12 -10 -15 -10 -15 2 0 19 20 38 41 38 9 0 22 7 29 15 15 17 7 19
-21 5 -24 -13 -25 1 -3 35 15 22 33 37 20 17z m-1072 -27 c-4 -8 -10 -15 -14
-15 -5 0 -16 -3 -24 -6 -12 -5 -15 -2 -10 9 3 9 15 18 27 20 12 2 23 5 24 6 1
0 0 -6 -3 -14z m166 -18 c0 -2 -9 -23 -21 -46 -21 -45 -21 -63 1 -36 12 15 40
21 40 9 0 -11 -85 -90 -112 -103 -15 -8 -33 -30 -42 -52 -18 -45 -30 -54 -46
-34 -7 9 -8 15 -2 15 5 0 15 12 21 28 13 33 33 65 46 74 5 4 10 14 10 22 0 21
77 126 93 126 6 0 12 -1 12 -3z m810 -12 c-7 -9 -15 -13 -19 -10 -3 3 1 10 9
15 21 14 24 12 10 -5z m230 -11 c0 -12 -4 -13 -21 -3 -17 9 -19 13 -8 19 16
11 29 4 29 -16z m205 15 c11 -17 0 -20 -21 -4 -17 13 -17 14 -2 15 9 0 20 -5
23 -11z m-1442 -23 c21 -16 21 -39 1 -107 -9 -30 -18 -60 -20 -67 -2 -7 -8
-10 -14 -7 -7 4 -6 13 1 27 10 18 9 20 -5 15 -14 -5 -16 3 -16 54 0 57 12 99
28 99 4 0 15 -7 25 -14z m1094 -98 c-26 -26 -29 -33 -15 -36 9 -2 35 6 57 17
22 12 42 17 45 12 3 -4 -7 -14 -22 -22 l-27 -14 39 -3 c30 -3 44 2 65 21 33
31 61 41 61 22 0 -7 -10 -15 -22 -17 -15 -2 -24 -11 -26 -25 -3 -23 -9 -26
-85 -38 -29 -5 -37 -3 -31 6 5 9 -1 10 -22 5 -29 -8 -83 -61 -84 -82 0 -16 47
-5 62 14 12 14 10 14 -12 2 -24 -13 -25 -12 -8 7 15 16 27 19 80 15 40 -3 68
-11 81 -22 18 -18 18 -18 0 -24 -10 -3 -40 -8 -67 -10 -51 -5 -90 -26 -47 -26
13 0 21 -5 19 -12 -5 -14 -21 -22 -75 -39 -24 -7 -43 -16 -43 -20 0 -4 20 -1
46 8 48 16 71 10 41 -11 -9 -7 -17 -17 -17 -21 0 -4 6 -3 13 2 6 6 28 15 47
22 l35 12 -39 -38 c-21 -21 -40 -33 -42 -27 -3 7 -27 8 -76 2 -40 -5 -72 -10
-73 -11 0 -1 -15 -22 -34 -46 -26 -34 -31 -45 -20 -52 18 -11 4 -23 -17 -15
-11 4 -14 13 -11 29 3 12 2 41 -2 65 -5 23 -5 42 -1 42 5 0 25 29 44 65 25 43
41 62 51 59 9 -4 22 11 40 45 15 31 32 51 43 52 10 0 12 3 5 6 -17 6 -17 63 0
63 8 0 24 11 37 25 13 14 27 25 31 25 4 0 -7 -14 -24 -32z m-829 15 c-2 -5
-14 -30 -27 -56 -24 -51 -45 -67 -64 -48 -8 8 -8 11 1 11 6 0 19 15 28 33 20
38 44 67 56 67 5 0 8 -3 6 -7z m282 0 c0 -5 -12 -13 -26 -20 -26 -12 -26 -12
-9 7 18 20 35 26 35 13z m-372 -63 c-7 -11 -16 -20 -20 -20 -5 0 -3 9 4 20 7
11 16 20 20 20 5 0 3 -9 -4 -20z m-54 -25 c-5 -19 -2 -25 10 -25 21 0 21 -16
0 -24 -22 -8 -22 -8 -34 14 -8 14 -7 25 2 40 18 28 30 25 22 -5z m-224 -4 c0
-5 -7 -14 -15 -21 -12 -10 -15 -10 -15 2 0 8 3 18 7 21 9 10 23 9 23 -2z m10
-61 c-11 -22 -25 -40 -30 -40 -11 0 -3 25 18 58 24 38 34 24 12 -18z m580 22
c0 -13 -12 -22 -22 -16 -10 6 -1 24 13 24 5 0 9 -4 9 -8z m-270 -29 c0 -14
-41 -75 -46 -70 -8 8 24 77 35 77 6 0 11 -3 11 -7z m-184 -78 c-14 -40 -36
-68 -36 -46 0 13 38 81 45 81 1 0 -3 -16 -9 -35z m804 31 c0 -3 -4 -8 -10 -11
-5 -3 -10 -1 -10 4 0 6 5 11 10 11 6 0 10 -2 10 -4z m915 -46 c-3 -5 -10 -10
-16 -10 -5 0 -9 5 -9 10 0 6 7 10 16 10 8 0 12 -4 9 -10z m-950 -41 c11 -17 2
-18 -19 -3 -17 12 -17 14 -4 14 9 0 20 -5 23 -11z m35 -88 c0 -9 -62 -22 -70
-14 -8 7 24 23 48 23 12 0 22 -4 22 -9z m-275 -41 c-9 -17 -15 -33 -14 -37 1
-12 -15 -14 -30 -4 -14 9 -5 36 25 65 24 24 36 9 19 -24z m160 -20 c-3 -5 -11
-10 -16 -10 -6 0 -7 5 -4 10 3 6 11 10 16 10 6 0 7 -4 4 -10z m189 -541 c-21
-22 -24 -28 -10 -23 14 5 17 3 14 -7 -3 -8 -19 -15 -36 -16 -39 -2 -34 16 17
63 43 39 55 25 15 -17z m2911 -519 c7 -11 -39 -25 -54 -15 -6 3 -11 10 -11 16
0 12 57 12 65 -1z m98 -115 c54 -55 59 -275 10 -469 -18 -74 -52 -143 -89
-179 -28 -28 -28 -28 -36 -7 -4 12 -8 60 -8 108 -1 159 -32 490 -51 538 -4 12
-5 25 -2 28 4 3 39 6 78 6 64 0 75 -3 98 -25z m-1347 -122 c0 -12 7 -19 22
-21 12 -2 22 -9 22 -16 0 -12 50 -54 80 -68 28 -12 -33 -8 -90 6 -147 38 -153
41 -156 66 -1 14 -1 20 2 14 5 -13 44 -7 44 6 0 4 17 12 38 18 20 5 38 10 38
11 1 1 1 -7 0 -16z m-21 -172 c62 -35 77 -123 50 -297 -32 -206 -103 -332
-218 -389 -116 -56 -378 -98 -561 -90 -144 7 -207 62 -259 226 -37 116 -47
177 -47 282 0 114 22 168 78 190 20 8 39 13 41 11 6 -6 -48 -84 -59 -84 -6 0
-10 -12 -10 -28 0 -15 -4 -41 -9 -58 -10 -36 6 -64 38 -64 25 0 70 46 71 72 0
36 99 30 130 -8 7 -7 19 -14 26 -14 8 0 14 -10 14 -25 0 -15 5 -23 13 -20 6 2
21 -2 32 -11 20 -15 20 -15 -5 -35 -14 -11 -36 -29 -50 -40 -14 -11 -26 -30
-26 -43 -2 -23 -1 -24 77 -20 51 3 79 1 79 -6 0 -5 7 -10 15 -10 8 0 15 -6 15
-14 0 -15 27 -29 40 -21 4 3 7 -3 6 -13 -1 -11 5 -16 17 -14 10 2 27 -7 38
-19 10 -12 19 -16 19 -9 0 8 9 10 28 6 20 -5 23 -4 12 4 -13 8 -13 10 1 10 9
0 45 27 80 60 35 33 67 60 71 60 4 0 34 27 68 61 54 54 78 88 86 126 1 7 10
27 19 45 18 36 29 158 14 158 -5 0 -9 7 -9 15 0 8 -4 15 -10 15 -5 0 -10 5
-10 11 0 14 55 2 95 -20z m-829 -76 c-27 -25 -51 -45 -55 -45 -19 0 -19 15 0
39 24 31 56 50 83 51 14 0 7 -11 -28 -45z m106 -59 c-2 -10 9 -29 25 -44 23
-22 25 -27 11 -30 -9 -2 -38 7 -65 20 -38 18 -49 29 -51 51 -3 28 -3 28 40 24
34 -3 42 -8 40 -21z m138 -795 c0 -10 -30 -24 -37 -17 -3 3 -2 9 2 15 8 13 35
15 35 2z m0 -71 c0 -11 -29 -40 -41 -40 -12 0 -12 17 1 25 6 4 8 16 4 27 -5
17 -3 18 15 9 12 -7 21 -16 21 -21z m-30 -144 c0 -3 -4 -8 -10 -11 -5 -3 -10
-1 -10 4 0 6 5 11 10 11 6 0 10 -2 10 -4z m860 -96 c0 -5 -2 -10 -4 -10 -3 0
-8 5 -11 10 -3 6 -1 10 4 10 6 0 11 -4 11 -10z m-130 -130 c0 -5 -4 -10 -10
-10 -5 0 -10 5 -10 10 0 6 5 10 10 10 6 0 10 -4 10 -10z m-456 -455 c-6 -16
-24 -21 -24 -7 0 11 11 22 21 22 5 0 6 -7 3 -15z m486 -113 c0 -10 -11 -29
-25 -42 -24 -22 -24 -22 -20 -2 9 50 45 84 45 44z m160 -362 c0 -5 -5 -10 -11
-10 -5 0 -7 5 -4 10 3 6 8 10 11 10 2 0 4 -4 4 -10z m-90 -155 c7 -8 8 -15 2
-15 -5 0 -15 7 -22 15 -7 8 -8 15 -2 15 5 0 15 -7 22 -15z m1187 -254 c26 -16
31 -25 30 -55 -1 -26 -6 -36 -16 -36 -20 0 -27 6 -71 53 -29 31 -32 39 -20 47
22 14 42 12 77 -9z m140 -43 c23 -20 37 -40 35 -50 -3 -14 -9 -12 -47 13 -23
16 -48 29 -53 29 -6 0 -10 9 -9 20 2 29 30 25 74 -12z m-51 -43 c4 -8 12 -15
20 -15 8 0 14 -5 14 -11 0 -5 -13 -2 -30 8 -30 17 -39 33 -20 33 6 0 13 -7 16
-15z m-2140 -190 c13 -13 13 -18 -3 -40 -22 -30 -28 -30 -55 -5 -18 17 -19 20
-5 20 9 0 22 9 29 20 15 24 15 24 34 5z m564 -85 c0 -5 -4 -10 -10 -10 -5 0
-10 5 -10 10 0 6 5 10 10 10 6 0 10 -4 10 -10z m-1350 -761 c7 -11 9 -23 6
-26 -7 -7 -24 5 -36 28 -8 15 -7 19 4 19 9 0 20 -9 26 -21z m1607 -47 c7 -4 9
-13 4 -21 -10 -16 -31 -6 -31 15 0 16 9 18 27 6z m-1083 -26 c-6 -15 -24 -23
-24 -11 0 8 24 34 28 30 1 -1 0 -10 -4 -19z m-19 -35 c3 -5 1 -12 -5 -16 -5
-3 -10 1 -10 9 0 18 6 21 15 7z m2350 -33 c-19 -85 -68 -143 -164 -194 -68
-36 -81 -40 -81 -24 0 6 6 10 14 10 7 0 19 7 26 15 10 12 9 16 -6 22 -11 4
-27 16 -36 28 -10 11 -17 15 -18 8 0 -7 4 -13 9 -13 16 0 22 -32 9 -47 -10
-13 -13 -11 -20 13 -13 47 15 128 36 107 3 -4 12 1 19 11 7 10 25 19 40 19 16
1 27 8 27 17 0 10 3 11 11 3 14 -14 1 -36 -17 -29 -8 3 -14 1 -14 -4 0 -5 -16
-14 -35 -21 -36 -13 -41 -23 -26 -48 8 -12 13 -12 35 3 14 9 26 21 26 26 0 15
21 12 40 -5 15 -14 19 -14 31 1 8 10 14 31 15 47 0 20 8 36 22 45 21 14 22 13
16 -4 -3 -11 4 -4 16 14 12 17 24 32 27 32 2 0 1 -15 -2 -32z m-165 12 c0 -5
-4 -10 -10 -10 -5 0 -10 5 -10 10 0 6 5 10 10 10 6 0 10 -4 10 -10z m-2549
-95 c11 7 11 3 3 -20 -6 -14 -8 -13 -19 7 -6 13 -9 28 -6 33 3 6 7 2 9 -8 2
-9 8 -15 13 -12z m569 -131 c-12 -30 -48 -63 -71 -64 -9 0 -24 10 -35 22 -17
20 -17 21 -1 9 16 -13 22 -11 55 22 44 45 66 49 52 11z m-17 -86 c13 -13 32
-28 43 -35 10 -6 14 -12 8 -12 -15 -1 -77 41 -82 57 -6 18 4 15 31 -10z m57
12 c0 -5 -5 -10 -11 -10 -5 0 -7 5 -4 10 3 6 8 10 11 10 2 0 4 -4 4 -10z
m-360 -20 c0 -5 -4 -10 -10 -10 -5 0 -10 5 -10 10 0 6 5 10 10 10 6 0 10 -4
10 -10z m106 -16 c-4 -11 -1 -14 13 -9 14 4 20 -1 24 -22 5 -28 -7 -53 -26
-53 -5 0 -16 -8 -23 -17 -12 -16 -15 -16 -24 -3 -8 12 -11 13 -19 1 -10 -16
-47 -7 -55 15 -7 18 71 101 98 103 13 1 16 -4 12 -15z m-205 -17 c-13 -13 -26
-3 -16 12 3 6 11 8 17 5 6 -4 6 -10 -1 -17z m119 13 c0 -5 -7 -10 -16 -10 -8
0 -12 5 -9 10 3 6 10 10 16 10 5 0 9 -4 9 -10z m456 -25 c-9 -14 -23 -25 -31
-25 -18 0 -19 -12 -2 -29 10 -11 8 -12 -9 -3 -28 15 -51 42 -35 42 7 0 28 11
48 25 43 29 52 26 29 -10z m-496 -40 c0 -8 -9 -15 -20 -15 -20 0 -26 11 -13
23 12 13 33 7 33 -8z m-160 -30 c0 -8 -4 -15 -10 -15 -5 0 -10 7 -10 15 0 8 5
15 10 15 6 0 10 -7 10 -15z m305 -25 c3 -5 1 -10 -4 -10 -6 0 -11 5 -11 10 0
6 2 10 4 10 3 0 8 -4 11 -10z m-255 -10 c0 -5 -4 -10 -10 -10 -5 0 -10 5 -10
10 0 6 5 10 10 10 6 0 10 -4 10 -10z"/>
<path d="M2647 7003 c-4 -3 -7 -11 -7 -17 0 -6 5 -5 12 2 6 6 9 14 7 17 -3 3
-9 2 -12 -2z"/>
<path d="M1756 6374 c-9 -24 -7 -28 9 -14 17 14 20 30 6 30 -5 0 -12 -7 -15
-16z"/>
<path d="M2930 6210 c-12 -8 -10 -10 8 -10 13 0 20 4 17 10 -7 12 -6 12 -25 0z"/>
<path d="M4298 4613 c7 -3 16 -2 19 1 4 3 -2 6 -13 5 -11 0 -14 -3 -6 -6z"/>
<path d="M3530 4220 c0 -5 5 -10 10 -10 6 0 10 5 10 10 0 6 -4 10 -10 10 -5 0
-10 -4 -10 -10z"/>
<path d="M3431 4124 c0 -11 3 -14 6 -6 3 7 2 16 -1 19 -3 4 -6 -2 -5 -13z"/>
<path d="M3490 4074 c0 -8 5 -12 10 -9 6 4 8 11 5 16 -9 14 -15 11 -15 -7z"/>
<path d="M3830 3903 c0 -13 5 -23 10 -23 13 0 13 11 0 30 -8 12 -10 11 -10 -7z"/>
<path d="M3775 3830 c-5 -6 -25 -22 -43 -36 -23 -19 -30 -30 -23 -37 15 -15
14 -30 -2 -24 -7 3 -13 -3 -13 -13 0 -10 6 -16 13 -13 7 3 13 9 13 14 0 5 4 9
9 9 21 0 66 58 66 83 0 29 -4 32 -20 17z"/>
<path d="M3817 3823 c-4 -3 -7 -13 -7 -22 1 -13 3 -13 11 2 11 19 8 33 -4 20z"/>
<path d="M3640 3776 c0 -8 5 -18 10 -21 6 -3 10 1 10 9 0 8 -4 18 -10 21 -5 3
-10 -1 -10 -9z"/>
<path d="M3818 3713 c7 -3 16 -2 19 1 4 3 -2 6 -13 5 -11 0 -14 -3 -6 -6z"/>
<path d="M5597 349 c-9 -5 -22 -7 -28 -3 -8 4 -8 0 0 -15 14 -26 23 -26 44 -3
28 31 19 42 -16 21z"/>
<path d="M5190 6971 c0 -6 4 -13 10 -16 6 -3 7 1 4 9 -7 18 -14 21 -14 7z"/>
<path d="M5200 6910 c0 -5 5 -10 10 -10 6 0 10 5 10 10 0 6 -4 10 -10 10 -5 0
-10 -4 -10 -10z"/>
<path d="M5390 6514 c0 -2 9 -8 20 -14 11 -6 20 -7 20 -2 0 6 -9 12 -20 15
-11 3 -20 3 -20 1z"/>
<path d="M5440 6497 c0 -6 123 -67 135 -67 12 0 -59 46 -80 52 -11 3 -28 9
-37 13 -10 4 -18 5 -18 2z"/>
<path d="M2465 6358 c-6 -13 -19 -27 -31 -33 -11 -6 -19 -15 -17 -22 5 -13
-35 -63 -51 -63 -5 0 0 9 13 21 29 27 20 36 -13 14 -28 -18 -32 -30 -16 -40 6
-4 8 -11 5 -16 -10 -15 19 -10 45 8 14 10 27 16 30 15 3 -2 7 5 9 15 1 10 9
25 15 33 15 18 37 90 27 90 -3 0 -11 -10 -16 -22z"/>
<path d="M2564 6333 c-26 -26 -56 -52 -67 -58 -23 -11 -34 -35 -17 -35 20 0
66 38 110 90 53 63 37 65 -26 3z"/>
<path d="M2145 6330 c-10 -11 -24 -20 -32 -20 -7 0 -13 -7 -13 -15 0 -8 -5
-15 -11 -15 -5 0 -8 -4 -5 -9 3 -5 -8 -23 -24 -41 -44 -47 -36 -57 14 -16 24
20 55 59 69 86 29 55 29 60 2 30z"/>
<path d="M2562 6264 c-45 -48 -51 -64 -27 -64 8 0 15 4 15 9 0 5 6 16 13 23
20 21 49 69 44 74 -2 2 -23 -16 -45 -42z"/>
<path d="M2430 6213 c-17 -7 -40 -29 -40 -37 0 -4 8 -2 18 3 9 5 25 12 35 15
9 3 17 10 17 16 0 11 -7 12 -30 3z"/>
<path d="M2464 6192 c-25 -20 -68 -82 -58 -82 4 0 29 23 55 50 45 48 48 69 3
32z"/>
<path d="M2149 6174 c-8 -9 -14 -24 -14 -33 0 -8 -8 -17 -17 -19 -10 -2 -18 1
-18 7 0 20 -18 11 -24 -11 -7 -28 -49 -78 -65 -78 -6 0 -10 -3 -8 -8 1 -4 -10
-21 -25 -37 -16 -16 -28 -33 -28 -37 0 -5 -4 -8 -10 -8 -14 0 -13 53 2 68 6 6
9 15 5 19 -12 11 -25 -9 -35 -54 -6 -25 -6 -43 -1 -45 14 -5 -10 -68 -25 -68
-7 0 -21 -9 -30 -19 -13 -15 -14 -20 -4 -24 10 -4 10 -6 0 -6 -10 -1 -10 -6
-1 -23 9 -18 8 -24 -6 -34 -9 -7 -19 -31 -22 -53 -5 -35 -3 -40 10 -35 13 4
14 0 8 -28 -4 -18 -15 -49 -25 -68 l-17 -35 23 28 c24 27 48 36 48 16 0 -5 5
-7 10 -4 6 3 10 14 10 24 0 10 9 26 20 36 11 10 17 22 14 27 -10 15 7 89 19
85 16 -5 9 -64 -13 -110 l-18 -37 29 21 c31 22 71 78 83 116 4 11 13 27 21 33
8 7 15 21 15 31 0 11 5 19 10 19 6 0 10 -7 10 -15 0 -8 5 -15 10 -15 6 0 10
14 10 31 0 19 11 45 28 68 16 20 40 56 53 81 13 25 32 51 42 58 13 10 15 18 7
32 -7 13 -6 20 3 23 6 3 1 6 -12 6 -14 1 -33 -7 -45 -16 -16 -15 -15 -10 7 31
29 53 28 68 -4 47 -19 -11 -20 -10 -14 8 8 25 2 27 -16 5z m-159 -243 c-11
-21 -30 -29 -30 -12 0 12 31 43 37 37 3 -2 0 -14 -7 -25z m87 -63 c-3 -8 -6
-5 -6 6 -1 11 2 17 5 13 3 -3 4 -12 1 -19z m-127 -17 c0 -10 -9 -26 -19 -35
-11 -10 -17 -25 -14 -33 6 -16 -12 -33 -36 -33 -12 0 -12 3 -3 12 7 7 12 27
12 45 0 20 8 41 20 53 23 23 40 19 40 -9z m27 -133 c-3 -8 -6 -5 -6 6 -1 11 2
17 5 13 3 -3 4 -12 1 -19z"/>
<path d="M2477 6139 c-40 -44 -48 -66 -19 -50 15 8 69 91 59 91 -2 0 -20 -18
-40 -41z"/>
<path d="M2013 6123 c-18 -6 -16 -23 1 -23 17 0 30 16 19 23 -5 2 -14 2 -20 0z"/>
<path d="M1620 6100 c-9 -16 -8 -18 5 -14 8 4 15 12 15 20 0 20 -7 17 -20 -6z"/>
<path d="M3446 6085 c-21 -32 -20 -39 2 -17 10 9 18 23 18 30 1 17 -1 16 -20
-13z"/>
<path d="M1841 6076 c-7 -8 -8 -17 -3 -19 4 -3 13 3 20 14 14 22 0 26 -17 5z"/>
<path d="M1877 6046 c-20 -44 -21 -56 -7 -56 6 0 10 8 10 18 0 10 5 23 11 29
6 6 9 19 7 29 -3 14 -9 9 -21 -20z"/>
<path d="M1616 6025 c-9 -14 -12 -25 -7 -25 12 0 35 39 28 46 -2 3 -12 -7 -21
-21z"/>
<path d="M1821 5937 c-29 -27 -46 -37 -49 -29 -2 8 -13 1 -27 -20 -24 -35 -24
-48 1 -48 8 0 12 4 9 10 -3 6 1 7 9 4 9 -3 16 -1 16 4 0 16 48 62 64 62 11 0
30 49 22 57 -1 1 -21 -17 -45 -40z"/>
<path d="M1562 5916 c-12 -6 -20 -15 -18 -21 2 -5 -1 -18 -6 -29 -7 -12 -6
-22 1 -29 8 -8 11 -6 11 6 0 9 8 21 19 26 10 6 21 22 23 36 6 27 4 28 -30 11z"/>
<path d="M2225 5907 c-4 -10 -5 -21 -1 -24 10 -10 18 4 13 24 -4 17 -4 17 -12
0z"/>
<path d="M1791 5846 c-18 -19 -32 -39 -29 -46 2 -6 18 5 37 24 18 19 32 39 29
46 -2 6 -18 -5 -37 -24z"/>
<path d="M1660 5851 c0 -11 -6 -22 -12 -24 -10 -4 -10 -7 0 -14 9 -7 6 -15
-13 -33 -14 -13 -25 -32 -25 -43 0 -14 -5 -17 -17 -12 -15 5 -16 4 -5 -7 11
-11 17 -8 35 17 12 17 32 40 44 52 35 36 43 55 28 70 -19 19 -35 16 -35 -6z"/>
<path d="M2277 5846 c-4 -10 -1 -13 9 -9 15 6 19 23 5 23 -5 0 -11 -7 -14 -14z"/>
<path d="M2402 5838 c5 -15 28 -23 28 -10 0 5 -7 13 -16 16 -10 4 -14 1 -12
-6z"/>
<path d="M2160 5801 c-35 -37 -53 -82 -32 -81 10 1 84 112 77 118 -3 3 -23
-14 -45 -37z"/>
<path d="M2306 5793 l-20 -27 27 20 c26 18 35 34 20 34 -5 0 -17 -13 -27 -27z"/>
<path d="M2377 5813 c-4 -3 -7 -11 -7 -17 0 -6 5 -5 12 2 6 6 9 14 7 17 -3 3
-9 2 -12 -2z"/>
<path d="M1788 5793 c-25 -28 -69 -123 -58 -123 5 0 10 6 10 14 0 20 27 40 32
24 8 -23 38 11 37 41 -1 14 2 34 6 44 4 9 3 17 -2 17 -6 0 -17 -8 -25 -17z"/>
<path d="M1687 5773 c-11 -10 -8 -43 3 -43 6 0 10 11 10 25 0 26 -2 29 -13 18z"/>
<path d="M1741 5764 c0 -11 3 -14 6 -6 3 7 2 16 -1 19 -3 4 -6 -2 -5 -13z"/>
<path d="M2059 5737 c-14 -17 -31 -48 -39 -67 -18 -47 -29 -60 -46 -53 -10 3
-14 -2 -14 -18 0 -19 -2 -21 -10 -9 -8 12 -10 10 -10 -9 0 -13 -11 -37 -25
-53 -18 -21 -25 -40 -23 -63 3 -44 18 -34 18 11 0 31 8 39 33 35 4 0 7 6 7 14
0 19 61 85 78 85 7 0 10 -4 7 -10 -13 -20 37 -9 56 13 24 28 23 32 -3 44 l-21
9 23 22 c13 12 19 22 12 22 -8 0 -9 7 -2 26 13 32 13 34 -2 34 -7 0 -24 -15
-39 -33z m8 -113 c-3 -4 -14 -3 -24 0 -15 6 -15 8 -3 16 16 10 39 -4 27 -16z"/>
<path d="M2306 5711 c-31 -34 -56 -66 -54 -73 2 -6 -15 -31 -39 -56 -24 -25
-43 -53 -43 -66 0 -12 -7 -31 -15 -42 -8 -10 -15 -23 -15 -28 0 -11 50 42 51
55 1 5 2 12 3 17 3 18 49 72 62 72 16 0 69 56 69 74 0 6 11 29 23 50 37 63 20
62 -42 -3z"/>
<path d="M2285 5740 c-3 -5 -2 -10 4 -10 5 0 13 5 16 10 3 6 2 10 -4 10 -5 0
-13 -4 -16 -10z"/>
<path d="M1560 5699 c0 -5 5 -7 10 -4 6 3 10 8 10 11 0 2 -4 4 -10 4 -5 0 -10
-5 -10 -11z"/>
<path d="M1651 5644 c0 -11 3 -14 6 -6 3 7 2 16 -1 19 -3 4 -6 -2 -5 -13z"/>
<path d="M1486 5617 c3 -10 9 -15 12 -12 3 3 0 11 -7 18 -10 9 -11 8 -5 -6z"/>
<path d="M1750 5614 c0 -8 5 -12 10 -9 6 3 10 10 10 16 0 5 -4 9 -10 9 -5 0
-10 -7 -10 -16z"/>
<path d="M2555 5608 c-4 -13 -19 -47 -32 -76 -13 -30 -22 -56 -19 -60 3 -3 7
-3 9 -1 2 2 16 22 32 43 17 23 24 41 18 43 -8 3 -8 14 -2 35 10 37 4 51 -6 16z"/>
<path d="M2360 5595 c0 -8 2 -15 4 -15 2 0 6 7 10 15 3 8 1 15 -4 15 -6 0 -10
-7 -10 -15z"/>
<path d="M2101 5579 c-7 -12 -10 -23 -8 -26 3 -3 11 5 17 17 15 28 8 35 -9 9z"/>
<path d="M2010 5569 c0 -5 5 -7 10 -4 6 3 10 8 10 11 0 2 -4 4 -10 4 -5 0 -10
-5 -10 -11z"/>
<path d="M2594 5543 l-18 -28 24 16 c26 17 38 39 22 39 -5 0 -18 -12 -28 -27z"/>
<path d="M2043 5527 c-24 -40 -17 -50 11 -18 10 11 16 28 14 38 -2 14 -8 9
-25 -20z"/>
<path d="M3893 5545 c-3 -9 -3 -18 0 -21 9 -9 27 6 27 22 0 19 -19 18 -27 -1z"/>
<path d="M1971 5508 c-11 -24 -22 -54 -25 -68 l-6 -25 13 26 c6 14 22 38 35
53 23 30 29 56 11 56 -5 0 -18 -19 -28 -42z"/>
<path d="M2358 5506 c-20 -14 -24 -36 -8 -36 6 0 10 7 10 15 0 20 27 19 39 -2
7 -14 13 -15 33 -6 l23 12 -22 0 c-14 1 -23 7 -23 16 0 18 -29 19 -52 1z"/>
<path d="M2550 5475 c-8 -9 -8 -15 -2 -15 12 0 26 19 19 26 -2 2 -10 -2 -17
-11z"/>
<path d="M2305 5471 c-3 -5 -1 -12 4 -15 5 -3 11 1 15 9 6 16 -9 21 -19 6z"/>
<path d="M2328 5435 c-16 -13 -28 -28 -28 -33 0 -5 -10 -17 -21 -28 -22 -19
-22 -19 -14 5 5 16 4 21 -4 17 -19 -12 -13 -46 7 -46 21 0 43 22 60 63 6 15
18 27 27 27 8 0 15 5 15 10 0 16 -13 11 -42 -15z"/>
<path d="M2013 5443 c-7 -3 -13 -14 -13 -26 0 -21 0 -21 16 1 17 25 16 32 -3
25z"/>
<path d="M2164 5427 c-24 -26 -54 -73 -54 -84 1 -13 40 41 40 55 0 6 9 12 20
12 13 0 20 7 20 20 0 24 0 24 -26 -3z"/>
<path d="M2446 5414 c-9 -23 -8 -24 12 -24 26 0 34 11 21 27 -15 17 -26 17
-33 -3z"/>
<path d="M1870 5398 c-12 -22 -12 -22 6 -6 10 10 15 20 12 24 -4 3 -12 -5 -18
-18z"/>
<path d="M1975 5379 c-11 -17 1 -21 15 -4 8 9 8 15 2 15 -6 0 -14 -5 -17 -11z"/>
<path d="M2380 5355 c-7 -9 -11 -18 -8 -20 3 -3 11 1 18 10 7 9 11 18 8 20 -3
3 -11 -1 -18 -10z"/>
<path d="M2442 5340 c-15 -24 -16 -50 -2 -50 6 0 10 9 10 19 0 11 4 21 10 23
5 2 6 8 2 15 -6 9 -11 7 -20 -7z"/>
<path d="M1950 5324 c0 -8 5 -12 10 -9 6 4 8 11 5 16 -9 14 -15 11 -15 -7z"/>
<path d="M2130 5329 c0 -5 5 -7 10 -4 6 3 10 8 10 11 0 2 -4 4 -10 4 -5 0 -10
-5 -10 -11z"/>
<path d="M1770 5315 c0 -8 -4 -15 -10 -15 -14 0 -12 -17 3 -23 8 -3 14 5 15
24 1 16 0 29 -3 29 -3 0 -5 -7 -5 -15z"/>
<path d="M2575 5310 c-3 -5 3 -10 14 -10 12 0 21 5 21 10 0 6 -6 10 -14 10 -8
0 -18 -4 -21 -10z"/>
<path d="M2192 5271 c-24 -41 -27 -56 -13 -47 13 9 52 86 43 86 -5 0 -18 -17
-30 -39z"/>
<path d="M1860 5289 c0 -5 5 -7 10 -4 6 3 10 8 10 11 0 2 -4 4 -10 4 -5 0 -10
-5 -10 -11z"/>
<path d="M2000 5265 c7 -8 10 -22 6 -30 -3 -8 -1 -15 3 -15 5 0 11 6 14 13 7
21 -4 47 -20 47 -13 0 -13 -3 -3 -15z"/>
<path d="M1860 5256 c0 -17 16 -30 23 -19 3 5 -1 14 -9 21 -12 10 -14 10 -14
-2z"/>
<path d="M1906 5262 c-2 -4 4 -13 14 -20 14 -8 21 -8 26 -1 4 6 0 15 -7 20
-18 11 -26 11 -33 1z"/>
<path d="M1840 5195 c-19 -22 -8 -25 13 -3 9 10 13 18 8 18 -5 0 -14 -7 -21
-15z"/>
<path d="M2115 5180 c-3 -5 -1 -10 4 -10 6 0 11 5 11 10 0 6 -2 10 -4 10 -3 0
-8 -4 -11 -10z"/>
<path d="M4110 5155 c0 -8 5 -15 10 -15 6 0 10 7 10 15 0 8 -4 15 -10 15 -5 0
-10 -7 -10 -15z"/>
<path d="M1824 5144 c-18 -14 -18 -15 4 -4 12 6 22 13 22 15 0 8 -5 6 -26 -11z"/>
<path d="M4090 5056 c0 -2 7 -9 15 -16 12 -10 15 -10 15 4 0 9 -7 16 -15 16
-8 0 -15 -2 -15 -4z"/>
<path d="M1677 4971 c-3 -12 -1 -21 3 -21 15 0 23 21 12 32 -6 6 -11 2 -15
-11z"/>
<path d="M2239 4953 c-13 -16 -12 -17 4 -4 9 7 17 15 17 17 0 8 -8 3 -21 -13z"/>
<path d="M4000 4940 c0 -5 7 -10 15 -10 8 0 15 5 15 10 0 6 -7 10 -15 10 -8 0
-15 -4 -15 -10z"/>
<path d="M1730 4850 c0 -5 5 -10 11 -10 5 0 7 5 4 10 -3 6 -8 10 -11 10 -2 0
-4 -4 -4 -10z"/>
<path d="M2645 4829 c-4 -6 -5 -12 -2 -15 2 -3 7 2 10 11 7 17 1 20 -8 4z"/>
<path d="M1770 4760 c0 -5 5 -10 11 -10 5 0 7 5 4 10 -3 6 -8 10 -11 10 -2 0
-4 -4 -4 -10z"/>
<path d="M1901 4734 c0 -11 3 -14 6 -6 3 7 2 16 -1 19 -3 4 -6 -2 -5 -13z"/>
<path d="M2750 4670 c-18 -16 -29 -30 -24 -30 12 0 35 18 53 43 20 26 9 21
-29 -13z"/>
<path d="M2635 4660 c-3 -5 -16 -10 -28 -11 -12 0 -16 -3 -9 -6 18 -7 16 -63
-3 -63 -9 0 -18 -7 -21 -15 -4 -8 -9 -13 -13 -11 -4 3 -7 -4 -8 -14 -1 -10 7
-20 17 -23 15 -4 24 5 40 37 11 23 20 48 20 55 0 7 6 11 14 8 8 -3 24 6 37 19
18 19 19 23 6 18 -9 -3 -24 -1 -31 5 -10 8 -16 9 -21 1z"/>
<path d="M2570 4614 c0 -8 5 -12 10 -9 6 3 10 10 10 16 0 5 -4 9 -10 9 -5 0
-10 -7 -10 -16z"/>
<path d="M2732 4621 c-7 -4 -15 -20 -16 -34 -3 -22 -1 -24 15 -14 11 7 19 15
19 19 0 3 3 13 6 22 7 17 -3 20 -24 7z"/>
<path d="M2060 4600 c-13 -8 -12 -10 3 -10 9 0 17 -8 17 -17 0 -15 2 -16 10
-3 5 8 10 21 10 28 0 14 -19 16 -40 2z"/>
<path d="M2345 4580 c-15 -17 -16 -20 -3 -20 9 0 19 7 22 16 10 25 1 27 -19 4z"/>
<path d="M2118 4569 c-9 -10 -14 -20 -11 -23 7 -7 36 22 31 32 -2 4 -10 0 -20
-9z"/>
<path d="M2375 4560 c3 -5 10 -10 16 -10 5 0 9 5 9 10 0 6 -7 10 -16 10 -8 0
-12 -4 -9 -10z"/>
<path d="M2177 4513 c-4 -20 1 -33 16 -46 22 -19 22 -19 25 7 3 26 -13 66 -27
66 -5 0 -11 -12 -14 -27z"/>
<path d="M2616 4511 c5 -5 24 -12 42 -16 25 -5 32 -3 32 9 0 12 -10 16 -42 16
-25 0 -38 -4 -32 -9z"/>
<path d="M2710 4495 c-10 -12 -10 -15 4 -15 9 0 16 7 16 15 0 8 -2 15 -4 15
-2 0 -9 -7 -16 -15z"/>
<path d="M2290 4450 c0 -5 7 -10 15 -10 8 0 15 5 15 10 0 6 -7 10 -15 10 -8 0
-15 -4 -15 -10z"/>
<path d="M2868 4433 c7 -3 16 -2 19 1 4 3 -2 6 -13 5 -11 0 -14 -3 -6 -6z"/>
<path d="M1848 4389 c-10 -5 -22 -26 -27 -47 -12 -45 -14 -211 -3 -226 17 -22
34 -94 28 -114 -5 -13 -2 -23 8 -29 8 -4 16 -21 19 -38 5 -31 48 -137 54 -132
1 2 -3 35 -10 73 -13 65 -12 79 20 249 18 99 34 190 34 203 1 13 8 26 15 29
22 8 16 18 -19 31 -40 14 -96 15 -119 1z"/>
<path d="M2580 4326 c0 -9 8 -12 25 -8 14 2 25 8 25 13 0 5 -11 9 -25 9 -14 0
-25 -6 -25 -14z"/>
<path d="M2665 4323 c16 -16 59 -23 75 -13 13 8 13 10 -1 10 -9 0 -32 3 -50 6
-23 5 -31 3 -24 -3z"/>
<path d="M2184 4265 c16 -14 32 -23 35 -19 7 6 -39 43 -54 44 -5 0 3 -11 19
-25z"/>
<path d="M2290 4110 c0 -5 -8 -9 -17 -8 -43 3 -73 -3 -70 -14 1 -8 -7 -13 -20
-12 -12 0 -24 -4 -26 -10 -3 -7 10 -11 32 -11 26 0 37 5 39 18 2 12 13 17 35
16 27 0 29 -2 12 -9 -16 -7 -16 -9 -4 -9 18 -1 35 -31 19 -31 -6 0 -10 -7 -10
-16 0 -11 -6 -15 -19 -11 -14 3 -18 1 -14 -10 5 -13 3 -13 -18 -1 -13 7 -28
18 -34 25 -8 9 -14 9 -26 0 -9 -7 -17 -16 -19 -22 -2 -5 -14 -19 -28 -29 -20
-16 -23 -24 -17 -54 6 -31 4 -34 -14 -29 -13 3 -22 -1 -25 -12 -7 -22 -1 -125
8 -139 4 -7 5 -16 2 -20 -9 -14 45 -59 96 -81 41 -17 55 -19 109 -10 35 6 66
12 71 15 4 3 8 0 8 -7 0 -10 3 -10 12 -1 8 8 8 15 -2 27 -7 8 -10 15 -7 15 3
0 -1 21 -9 47 -20 65 -17 106 8 138 14 18 23 46 26 79 3 46 0 57 -38 114 -37
57 -60 77 -60 52z m-60 -154 c0 -13 6 -26 12 -28 9 -3 8 -12 -5 -31 -9 -14
-17 -32 -17 -38 0 -14 -30 -38 -47 -39 -12 0 -53 35 -53 45 0 3 7 5 15 5 10 0
15 10 16 28 0 15 3 21 6 15 2 -7 11 -13 19 -13 13 0 13 3 0 22 -19 26 -21 47
-4 30 17 -17 25 -15 31 8 7 28 27 25 27 -4z m40 -161 c0 -8 -4 -15 -10 -15 -5
0 -10 7 -10 15 0 8 5 15 10 15 6 0 10 -7 10 -15z m24 -26 c-3 -5 -10 -7 -15
-3 -5 3 -7 10 -3 15 3 5 10 7 15 3 5 -3 7 -10 3 -15z m-62 -51 c-7 -7 -12 -8
-12 -2 0 14 12 26 19 19 2 -3 -1 -11 -7 -17z m98 -33 c0 -8 -4 -15 -10 -15 -5
0 -7 7 -4 15 4 8 8 15 10 15 2 0 4 -7 4 -15z m-46 -20 c3 -8 1 -15 -4 -15 -6
0 -10 7 -10 15 0 8 2 15 4 15 2 0 6 -7 10 -15z"/>
<path d="M2065 4030 c-8 -16 -15 -36 -15 -45 0 -19 24 -20 40 0 10 12 10 15 0
15 -8 0 -11 10 -8 30 6 38 2 38 -17 0z"/>
<path d="M1941 3738 c-1 -15 4 -30 9 -33 12 -7 12 12 0 40 -8 18 -9 17 -9 -7z"/>
<path d="M1870 3660 c0 -5 5 -10 11 -10 5 0 7 5 4 10 -3 6 -8 10 -11 10 -2 0
-4 -4 -4 -10z"/>
<path d="M2380 3620 c0 -5 5 -10 11 -10 5 0 8 -3 5 -8 -2 -4 2 -16 10 -27 14
-19 14 -19 14 1 -1 19 -22 54 -34 54 -3 0 -6 -4 -6 -10z"/>
<path d="M3960 3600 c-9 -6 -10 -10 -3 -10 6 0 15 5 18 10 8 12 4 12 -15 0z"/>
<path d="M2443 3538 c4 -10 2 -18 -3 -18 -5 0 -7 -7 -3 -17 5 -14 8 -12 15 7
6 15 5 27 -3 34 -9 8 -10 7 -6 -6z"/>
<path d="M1940 3521 c0 -6 4 -13 10 -16 6 -3 7 1 4 9 -7 18 -14 21 -14 7z"/>
<path d="M1996 3437 c3 -10 9 -15 12 -12 3 3 0 11 -7 18 -10 9 -11 8 -5 -6z"/>
<path d="M3571 3424 c0 -11 3 -14 6 -6 3 7 2 16 -1 19 -3 4 -6 -2 -5 -13z"/>
<path d="M4401 3284 c0 -11 3 -14 6 -6 3 7 2 16 -1 19 -3 4 -6 -2 -5 -13z"/>
<path d="M4501 3254 c-9 -20 -9 -25 0 -22 14 5 32 48 20 48 -4 0 -13 -12 -20
-26z"/>
<path d="M4255 3004 c-12 -9 -16 -17 -9 -24 13 -13 46 11 36 27 -5 8 -12 8
-27 -3z"/>
<path d="M4267 2949 c-10 -11 -16 -23 -14 -25 9 -9 58 17 55 28 -7 20 -23 19
-41 -3z"/>
<path d="M4505 2679 c-4 -6 -5 -12 -2 -15 2 -3 7 2 10 11 7 17 1 20 -8 4z"/>
<path d="M2749 2444 l-24 -27 28 18 c15 9 27 21 27 26 0 14 -5 11 -31 -17z"/>
<path d="M4350 2420 c0 -11 5 -20 10 -20 6 0 10 9 10 20 0 11 -4 20 -10 20 -5
0 -10 -9 -10 -20z"/>
<path d="M4434 2230 c0 -11 4 -20 8 -20 4 0 8 9 8 20 0 11 -4 20 -8 20 -4 0
-8 -9 -8 -20z"/>
<path d="M3510 2001 c0 -5 7 -15 17 -22 15 -13 15 -12 4 9 -12 23 -21 28 -21
13z"/>
<path d="M3344 1967 c-7 -20 1 -47 15 -47 17 0 22 33 7 49 -14 13 -16 13 -22
-2z"/>
<path d="M3500 1963 c0 -12 38 -48 45 -41 3 2 -6 15 -20 28 -14 13 -25 19 -25
13z"/>
<path d="M3420 1956 c0 -17 92 -97 106 -92 11 4 12 10 4 25 -5 11 -15 23 -21
27 -7 4 -6 -2 1 -17 l13 -24 -24 20 c-13 11 -36 31 -51 44 -16 14 -28 21 -28
17z"/>
<path d="M3564 1882 c-14 -9 -24 -61 -13 -68 5 -3 9 -15 9 -28 0 -23 76 -104
87 -92 4 3 -10 21 -30 39 -35 31 -48 57 -28 57 5 0 7 9 4 20 -3 12 0 20 6 20
7 0 9 5 6 10 -4 6 -10 8 -15 5 -5 -3 -10 6 -12 20 -2 15 -7 22 -14 17z"/>
<path d="M3366 1866 c3 -8 12 -17 20 -20 12 -4 12 -2 4 14 -12 23 -32 27 -24
6z"/>
<path d="M3410 1802 c0 -5 7 -15 15 -22 8 -7 15 -8 15 -2 0 5 -7 15 -15 22 -8
7 -15 8 -15 2z"/>
<path d="M3460 1739 c0 -5 5 -7 10 -4 6 3 10 -1 10 -9 0 -9 5 -16 10 -16 14 0
13 13 -2 28 -15 15 -28 15 -28 1z"/>
<path d="M91 1694 c0 -11 3 -14 6 -6 3 7 2 16 -1 19 -3 4 -6 -2 -5 -13z"/>
<path d="M3485 1680 c3 -5 8 -10 11 -10 2 0 4 5 4 10 0 6 -5 10 -11 10 -5 0
-7 -4 -4 -10z"/>
<path d="M3430 1671 c0 -6 4 -13 10 -16 6 -3 7 1 4 9 -7 18 -14 21 -14 7z"/>
<path d="M3460 1530 c0 -5 7 -10 16 -10 8 0 12 5 9 10 -3 6 -10 10 -16 10 -5
0 -9 -4 -9 -10z"/>
<path d="M4265 1510 c10 -11 23 -20 28 -20 6 0 2 9 -8 20 -10 11 -23 20 -28
20 -6 0 -2 -9 8 -20z"/>
<path d="M4220 1509 c0 -5 5 -7 10 -4 6 3 10 8 10 11 0 2 -4 4 -10 4 -5 0 -10
-5 -10 -11z"/>
<path d="M3536 1503 c-12 -12 -6 -33 9 -33 8 0 15 6 15 14 0 17 -14 28 -24 19z"/>
<path d="M7028 1413 c7 -3 16 -2 19 1 4 3 -2 6 -13 5 -11 0 -14 -3 -6 -6z"/>
<path d="M3965 1370 c-3 -5 1 -10 9 -10 9 0 16 5 16 10 0 6 -4 10 -9 10 -6 0
-13 -4 -16 -10z"/>
<path d="M7207 1359 c7 -7 15 -10 18 -7 3 3 -2 9 -12 12 -14 6 -15 5 -6 -5z"/>
<path d="M4150 1325 c0 -9 5 -15 11 -13 6 2 11 8 11 13 0 5 -5 11 -11 13 -6 2
-11 -4 -11 -13z"/>
<path d="M4100 1280 c8 -5 20 -10 25 -10 6 0 3 5 -5 10 -8 5 -19 10 -25 10 -5
0 -3 -5 5 -10z"/>
<path d="M2372 1150 c0 -14 2 -19 5 -12 2 6 2 18 0 25 -3 6 -5 1 -5 -13z"/>
<path d="M2356 1089 c-3 -17 -6 -35 -6 -40 0 -12 92 -105 118 -118 32 -17 30
9 -4 40 -43 39 -84 100 -84 126 0 34 -16 28 -24 -8z"/>
<path d="M2480 1104 c0 -3 14 -25 31 -49 17 -24 28 -48 25 -54 -4 -6 0 -11 8
-11 24 0 20 15 -20 70 -34 47 -44 57 -44 44z"/>
<path d="M2370 970 c0 -5 5 -10 11 -10 5 0 7 5 4 10 -3 6 -8 10 -11 10 -2 0
-4 -4 -4 -10z"/>
<path d="M2400 943 c0 -15 19 -37 26 -31 3 4 -1 14 -10 23 -9 9 -16 13 -16 8z"/>
<path d="M2483 911 c-23 -15 -33 -17 -37 -8 -4 7 -4 -1 0 -18 9 -50 25 -58 57
-31 27 23 40 66 22 72 -5 2 -24 -5 -42 -15z"/>
<path d="M80 895 c0 -8 7 -15 15 -15 8 0 15 4 15 9 0 5 -7 11 -15 15 -9 3 -15
0 -15 -9z"/>
<path d="M225 870 c-3 -5 -1 -10 4 -10 6 0 11 5 11 10 0 6 -2 10 -4 10 -3 0
-8 -4 -11 -10z"/>
<path d="M160 850 c0 -5 5 -10 11 -10 5 0 7 5 4 10 -3 6 -8 10 -11 10 -2 0 -4
-4 -4 -10z"/>
<path d="M71 804 c0 -11 3 -14 6 -6 3 7 2 16 -1 19 -3 4 -6 -2 -5 -13z"/>
<path d="M2229 748 c-9 -19 -9 -21 2 -10 18 17 30 15 23 -3 -7 -18 0 -19 28
-4 21 11 21 12 -3 25 -33 18 -37 17 -50 -8z"/>
<path d="M2355 696 c-9 -19 -14 -40 -10 -47 9 -14 -37 -1 -46 14 -11 16 -29
-2 -29 -29 0 -26 -31 -47 -38 -26 -2 7 -8 10 -12 7 -5 -3 -7 -12 -3 -20 6 -16
-12 -21 -22 -5 -3 5 -13 6 -22 3 -11 -4 -14 -2 -11 8 3 8 13 13 22 11 13 -2
15 2 11 20 -4 16 1 33 16 51 12 16 19 31 15 34 -11 11 -56 -20 -54 -36 2 -10
-3 -15 -14 -13 -35 6 -62 -69 -35 -97 10 -12 9 -13 -7 -7 -14 5 -17 2 -12 -9
3 -8 1 -15 -4 -15 -13 0 -40 -29 -40 -43 0 -9 3 -8 8 1 7 10 15 9 40 -3 17 -9
34 -20 37 -26 9 -14 25 -11 25 6 0 8 -4 15 -10 15 -5 0 -7 7 -3 16 5 14 7 14
16 -2 6 -11 13 -21 16 -24 3 -3 6 -9 6 -15 1 -32 31 -115 42 -115 7 0 13 -4
13 -10 0 -14 -23 -13 -38 2 -6 6 -15 9 -19 5 -4 -4 -1 -13 5 -19 7 -7 12 -17
12 -23 0 -6 -3 -7 -8 0 -12 16 -52 36 -52 26 0 -6 5 -13 10 -16 6 -3 10 -10
10 -16 0 -5 -4 -9 -10 -9 -5 0 -10 7 -10 15 0 8 -4 15 -10 15 -6 0 -5 10 2 25
6 14 9 27 7 30 -8 7 -49 -7 -49 -17 0 -5 4 -7 9 -4 5 3 11 -6 14 -19 3 -18 -1
-29 -14 -36 -11 -5 -19 -20 -19 -33 0 -25 -34 -68 -63 -79 -10 -4 -16 -11 -13
-15 3 -5 -3 -14 -14 -22 -18 -13 -17 -45 2 -34 6 4 5 -3 -1 -15 -7 -11 -15
-21 -19 -21 -4 0 -7 -18 -7 -40 l-1 -40 383 0 383 0 0 29 c0 17 5 33 10 36 6
3 10 21 10 38 l-1 32 -24 -27 c-24 -28 -42 -38 -30 -17 4 6 -1 16 -11 23 -11
8 -15 21 -11 35 3 14 1 21 -8 21 -8 0 -16 -8 -18 -17 -2 -10 -2 -2 0 17 5 35
5 35 -16 16 -23 -21 -25 -18 -36 47 -7 44 -18 47 -31 10 l-9 -28 -22 38 c-16
26 -28 36 -43 34 -17 -2 -30 13 -62 71 l-40 73 22 24 c26 28 18 55 -9 31 -14
-12 -20 -13 -30 -3 -9 9 -14 9 -21 -3 -7 -12 -12 -11 -29 4 -22 20 -28 51 -12
61 5 3 12 1 16 -5 12 -20 22 -10 17 18 -4 23 -3 25 10 15 11 -10 17 -10 26 -1
18 18 15 49 -3 42 -19 -8 -20 15 -1 30 15 12 11 86 -5 86 -4 0 -15 -16 -24
-34z m-223 -78 c-7 -7 -12 -8 -12 -2 0 14 12 26 19 19 2 -3 -1 -11 -7 -17z m8
-99 c0 -5 -4 -9 -10 -9 -5 0 -10 7 -10 16 0 8 5 12 10 9 6 -3 10 -10 10 -16z
m105 -89 c3 -5 1 -10 -4 -10 -6 0 -11 5 -11 10 0 6 2 10 4 10 3 0 8 -4 11 -10z
m-65 -171 c0 -5 -4 -9 -10 -9 -5 0 -10 7 -10 16 0 8 5 12 10 9 6 -3 10 -10 10
-16z m80 11 c-8 -5 -22 -10 -30 -10 -13 0 -13 1 0 10 8 5 22 10 30 10 13 0 13
-1 0 -10z m-85 -90 c3 -5 1 -10 -4 -10 -6 0 -11 5 -11 10 0 6 2 10 4 10 3 0 8
-4 11 -10z m425 -4 c0 -3 -4 -8 -10 -11 -5 -3 -10 -1 -10 4 0 6 5 11 10 11 6
0 10 -2 10 -4z"/>
<path d="M290 702 c0 -12 19 -26 26 -19 2 2 -2 10 -11 17 -9 8 -15 8 -15 2z"/>
<path d="M1479 693 c-13 -16 -12 -17 4 -4 16 13 21 21 13 21 -2 0 -10 -8 -17
-17z"/>
<path d="M75 690 c3 -5 11 -10 16 -10 6 0 7 5 4 10 -3 6 -11 10 -16 10 -6 0
-7 -4 -4 -10z"/>
<path d="M4146 658 c-23 -35 -28 -91 -10 -115 14 -17 14 -17 28 1 8 10 19 15
25 11 15 -9 14 8 -1 23 -7 7 -15 33 -18 60 l-5 47 -19 -27z"/>
<path d="M260 659 c0 -5 5 -7 10 -4 6 3 10 8 10 11 0 2 -4 4 -10 4 -5 0 -10
-5 -10 -11z"/>
<path d="M1370 649 c0 -5 5 -7 10 -4 6 3 10 8 10 11 0 2 -4 4 -10 4 -5 0 -10
-5 -10 -11z"/>
<path d="M3222 640 c-6 -11 -12 -26 -12 -33 0 -7 -13 -26 -30 -42 -36 -35 -41
-66 -8 -57 17 4 20 2 15 -11 -4 -10 -3 -17 1 -17 11 0 97 80 86 80 -5 0 -17
12 -28 26 -13 19 -15 29 -7 37 13 13 15 37 3 37 -4 0 -13 -9 -20 -20z m28 -87
c0 -10 -32 -43 -42 -43 -12 0 -10 24 4 38 13 13 38 16 38 5z"/>
<path d="M270 610 c0 -5 5 -10 10 -10 6 0 10 5 10 10 0 6 -4 10 -10 10 -5 0
-10 -4 -10 -10z"/>
<path d="M3175 610 c-3 -5 -1 -10 4 -10 6 0 11 5 11 10 0 6 -2 10 -4 10 -3 0
-8 -4 -11 -10z"/>
<path d="M190 600 c0 -5 5 -10 10 -10 6 0 10 5 10 10 0 6 -4 10 -10 10 -5 0
-10 -4 -10 -10z"/>
<path d="M3050 599 c0 -5 5 -7 10 -4 6 3 10 8 10 11 0 2 -4 4 -10 4 -5 0 -10
-5 -10 -11z"/>
<path d="M340 584 c0 -8 5 -12 10 -9 6 4 8 11 5 16 -9 14 -15 11 -15 -7z"/>
<path d="M1280 595 c0 -2 10 -10 23 -16 20 -11 21 -11 8 4 -13 16 -31 23 -31
12z"/>
<path d="M2059 583 c-13 -16 -12 -17 4 -4 16 13 21 21 13 21 -2 0 -10 -8 -17
-17z"/>
<path d="M2691 584 c7 -9 15 -25 16 -37 5 -29 13 -35 13 -8 0 28 -17 61 -32
61 -6 0 -6 -6 3 -16z"/>
<path d="M226 573 c-6 -14 -5 -15 5 -6 7 7 10 15 7 18 -3 3 -9 -2 -12 -12z"/>
<path d="M85 550 c-3 -5 -1 -10 4 -10 6 0 11 5 11 10 0 6 -2 10 -4 10 -3 0 -8
-4 -11 -10z"/>
<path d="M150 550 c20 -13 33 -13 25 0 -3 6 -14 10 -23 10 -15 0 -15 -2 -2
-10z"/>
<path d="M1289 523 c-13 -16 -12 -17 4 -4 16 13 21 21 13 21 -2 0 -10 -8 -17
-17z"/>
<path d="M2678 510 c2 -16 8 -27 13 -24 13 8 11 30 -4 43 -11 8 -13 5 -9 -19z"/>
<path d="M4362 515 c-7 -14 -12 -32 -12 -40 0 -8 -4 -15 -8 -15 -4 0 -14 -20
-21 -45 -14 -49 -34 -58 -46 -22 -7 20 -7 21 -12 3 -3 -11 1 -24 8 -30 8 -6
13 -24 11 -41 -4 -41 82 126 92 178 8 43 4 47 -12 12z"/>
<path d="M408 523 c7 -3 16 -2 19 1 4 3 -2 6 -13 5 -11 0 -14 -3 -6 -6z"/>
<path d="M4207 524 c-4 -4 -7 -14 -7 -23 0 -11 3 -12 11 -4 6 6 10 16 7 23 -2
6 -7 8 -11 4z"/>
<path d="M230 490 c0 -5 5 -10 11 -10 5 0 7 5 4 10 -3 6 -8 10 -11 10 -2 0 -4
-4 -4 -10z"/>
<path d="M315 480 c-3 -5 1 -10 10 -10 9 0 13 5 10 10 -3 6 -8 10 -10 10 -2 0
-7 -4 -10 -10z"/>
<path d="M1631 481 c-7 -5 -9 -11 -5 -14 5 -3 15 1 22 9 14 16 5 18 -17 5z"/>
<path d="M3090 486 c0 -2 9 -6 20 -9 11 -3 20 -1 20 4 0 5 -9 9 -20 9 -11 0
-20 -2 -20 -4z"/>
<path d="M0 465 c0 -8 4 -15 9 -15 5 0 11 7 15 15 3 9 0 15 -9 15 -8 0 -15 -7
-15 -15z"/>
<path d="M930 437 l-35 -42 38 29 c20 16 37 35 37 42 0 19 -1 19 -40 -29z"/>
<path d="M72 434 c-14 -16 -5 -18 17 -5 7 5 9 11 5 14 -5 3 -15 -1 -22 -9z"/>
<path d="M141 434 c0 -11 3 -14 6 -6 3 7 2 16 -1 19 -3 4 -6 -2 -5 -13z"/>
<path d="M3070 440 c0 -5 5 -10 10 -10 6 0 10 5 10 10 0 6 -4 10 -10 10 -5 0
-10 -4 -10 -10z"/>
<path d="M320 424 c0 -8 5 -12 10 -9 6 4 8 11 5 16 -9 14 -15 11 -15 -7z"/>
<path d="M1149 423 c-13 -16 -12 -17 4 -4 16 13 21 21 13 21 -2 0 -10 -8 -17
-17z"/>
<path d="M1949 423 c-13 -16 -12 -17 4 -4 16 13 21 21 13 21 -2 0 -10 -8 -17
-17z"/>
<path d="M230 421 c0 -6 5 -13 10 -16 6 -3 10 1 10 9 0 9 -4 16 -10 16 -5 0
-10 -4 -10 -9z"/>
<path d="M0 402 c0 -11 6 -22 13 -25 9 -3 9 -7 1 -18 -6 -8 -12 -51 -12 -96
-1 -69 1 -81 13 -77 9 4 15 0 15 -10 0 -8 9 -20 20 -26 24 -13 26 -30 5 -30
-8 0 -15 5 -15 10 0 6 -7 10 -15 10 -8 0 -15 -5 -15 -10 0 -6 7 -13 15 -16 8
-4 15 -12 15 -19 0 -7 6 -16 13 -18 6 -3 -1 -6 -16 -6 -16 -1 -26 3 -22 9 3 6
1 10 -4 10 -6 0 -11 -9 -11 -20 0 -15 7 -20 29 -20 16 0 34 7 41 15 7 8 18 15
24 14 7 0 6 -2 -1 -6 -7 -2 -13 -11 -13 -19 0 -14 -10 -17 -40 -15 -19 1 -47
-16 -39 -24 3 -3 42 -8 85 -11 l79 -7 14 37 c16 39 36 47 43 18 7 -26 38 -23
50 4 12 26 34 38 43 24 4 -6 21 -10 38 -9 31 1 31 1 7 9 -18 6 -20 8 -7 9 10
1 15 6 11 12 -3 6 -15 9 -25 6 -11 -3 -19 -1 -19 4 0 12 47 11 55 -1 12 -19
26 -10 19 13 -9 30 -11 32 -29 17 -8 -7 -21 -10 -29 -7 -8 3 -17 -1 -20 -9 -8
-20 -30 -17 -51 6 l-18 20 -22 -20 c-12 -11 -29 -20 -38 -20 -10 0 -14 -5 -11
-14 3 -8 1 -17 -5 -20 -15 -10 -23 31 -11 55 9 15 18 20 36 16 19 -3 24 -1 19
11 -3 8 3 24 12 35 13 14 13 18 3 12 -8 -5 -21 -17 -28 -27 -13 -17 -38 -26
-28 -10 7 11 -22 52 -37 52 -6 0 -21 -12 -32 -27 -24 -29 -50 -24 -42 7 3 11
-2 21 -11 25 -13 5 -12 7 4 19 10 8 24 12 31 9 7 -3 13 -1 13 5 0 14 -28 23
-35 12 -11 -18 -26 -10 -20 10 4 14 2 20 -8 20 -8 0 -17 7 -21 15 -3 9 0 15
10 15 20 0 30 30 13 41 -8 4 -14 16 -14 25 0 10 -6 19 -12 21 -8 3 -13 -4 -13
-15z m157 -235 c2 -24 0 -27 -13 -16 -12 10 -13 9 -8 -6 4 -10 1 -21 -7 -26
-12 -8 -12 -11 1 -22 9 -6 14 -20 12 -29 -2 -10 1 -18 7 -18 6 0 11 -7 11 -15
0 -8 -2 -15 -4 -15 -2 0 -12 -3 -21 -6 -13 -5 -16 -2 -14 17 2 13 0 30 -4 36
-11 18 -14 93 -4 93 5 0 7 6 4 14 -7 18 2 28 22 24 9 -2 17 -15 18 -31z m83
-77 c0 -5 8 -10 17 -10 12 0 14 -3 6 -11 -8 -8 -17 -7 -32 3 -25 15 -27 28 -6
28 8 0 15 -4 15 -10z"/>
<path d="M2136 412 c-4 -7 -3 -12 3 -12 5 0 13 -9 16 -21 5 -16 10 -18 21 -8
20 16 17 29 -5 29 -11 0 -21 5 -23 12 -3 9 -6 9 -12 0z"/>
<path d="M350 400 c0 -5 5 -10 11 -10 5 0 7 5 4 10 -3 6 -8 10 -11 10 -2 0 -4
-4 -4 -10z"/>
<path d="M1917 403 c-4 -3 -7 -11 -7 -17 0 -6 5 -5 12 2 6 6 9 14 7 17 -3 3
-9 2 -12 -2z"/>
<path d="M60 386 c0 -8 7 -16 15 -20 17 -6 18 -4 9 18 -8 20 -24 21 -24 2z"/>
<path d="M111 386 c-12 -14 -5 -66 8 -66 3 0 7 18 7 40 2 45 1 46 -15 26z"/>
<path d="M2845 390 c3 -5 13 -10 21 -10 8 0 12 5 9 10 -3 6 -13 10 -21 10 -8
0 -12 -4 -9 -10z"/>
<path d="M1100 360 c-9 -6 -10 -10 -3 -10 6 0 15 5 18 10 8 12 4 12 -15 0z"/>
<path d="M2920 335 c0 -8 5 -15 10 -15 6 0 10 7 10 15 0 8 -4 15 -10 15 -5 0
-10 -7 -10 -15z"/>
<path d="M1540 315 c0 -12 5 -15 17 -11 16 6 16 6 0 -12 -15 -17 -15 -19 2
-34 18 -15 19 -14 23 23 2 21 0 39 -3 39 -4 0 -14 3 -23 6 -11 4 -16 1 -16
-11z"/>
<path d="M2820 318 c0 -4 14 -8 30 -8 17 0 30 4 30 8 0 5 -13 9 -30 9 -16 0
-30 -4 -30 -9z"/>
<path d="M330 310 c0 -5 5 -10 10 -10 6 0 10 5 10 10 0 6 -4 10 -10 10 -5 0
-10 -4 -10 -10z"/>
<path d="M2555 300 c-3 -5 -1 -10 4 -10 6 0 11 5 11 10 0 6 -2 10 -4 10 -3 0
-8 -4 -11 -10z"/>
<path d="M2790 300 c0 -5 5 -10 11 -10 5 0 7 5 4 10 -3 6 -8 10 -11 10 -2 0
-4 -4 -4 -10z"/>
<path d="M103 286 c2 -6 18 -11 34 -12 19 -1 30 3 27 10 -6 15 -66 17 -61 2z"/>
<path d="M357 283 c-12 -11 -8 -23 8 -23 8 0 15 7 15 15 0 16 -12 20 -23 8z"/>
<path d="M2620 280 c0 -5 5 -10 11 -10 5 0 7 5 4 10 -3 6 -8 10 -11 10 -2 0
-4 -4 -4 -10z"/>
<path d="M4227 263 c-5 -26 18 -72 36 -73 11 0 9 28 -3 35 -5 3 -10 17 -10 30
0 34 -17 40 -23 8z"/>
<path d="M321 254 c0 -11 3 -14 6 -6 3 7 2 16 -1 19 -3 4 -6 -2 -5 -13z"/>
<path d="M230 253 c0 -4 7 -17 15 -27 8 -11 15 -30 15 -42 0 -24 30 -37 59
-26 15 6 15 10 4 32 -9 18 -13 20 -13 8 0 -26 -17 -22 -37 10 -22 33 -43 56
-43 45z"/>
<path d="M460 245 c-11 -13 -10 -14 4 -9 9 3 16 10 16 15 0 13 -6 11 -20 -6z"/>
<path d="M1695 199 c-54 -55 -84 -81 -202 -171 -22 -18 -30 -28 -20 -28 18 0
82 41 109 70 10 10 34 31 55 47 46 34 105 99 115 124 4 11 6 19 5 19 -2 0 -29
-27 -62 -61z"/>
<path d="M2860 235 c0 -8 2 -15 4 -15 2 0 6 7 10 15 3 8 1 15 -4 15 -6 0 -10
-7 -10 -15z"/>
<path d="M172 224 c1 -9 9 -19 16 -22 9 -3 13 2 10 14 -1 9 -9 19 -16 22 -9 3
-13 -2 -10 -14z"/>
<path d="M382 228 c3 -7 13 -15 24 -17 16 -3 17 -1 5 13 -16 19 -34 21 -29 4z"/>
<path d="M336 222 c-3 -6 -1 -14 5 -17 15 -10 25 3 12 16 -7 7 -13 7 -17 1z"/>
<path d="M732 204 c-15 -16 -10 -44 8 -44 5 0 10 6 10 14 0 8 3 21 6 30 8 20
-7 20 -24 0z"/>
<path d="M4180 213 c1 -14 34 -50 58 -62 32 -17 29 4 -7 40 -28 28 -51 38 -51
22z"/>
<path d="M960 191 c0 -5 5 -13 10 -16 8 -5 7 -11 -1 -21 -10 -12 -9 -13 5 -8
20 8 20 21 1 40 -8 9 -15 11 -15 5z"/>
<path d="M1000 190 c0 -5 5 -10 10 -10 6 0 10 5 10 10 0 6 -4 10 -10 10 -5 0
-10 -4 -10 -10z"/>
<path d="M1570 193 c1 -14 27 -43 33 -37 7 7 -14 44 -25 44 -5 0 -8 -3 -8 -7z"/>
<path d="M830 165 c0 -8 5 -15 10 -15 6 0 10 7 10 15 0 8 -4 15 -10 15 -5 0
-10 -7 -10 -15z"/>
<path d="M775 160 c-3 -5 1 -10 9 -10 9 0 16 5 16 10 0 6 -4 10 -9 10 -6 0
-13 -4 -16 -10z"/>
<path d="M2770 143 c4 -16 11 -36 15 -45 4 -10 0 -27 -9 -40 -28 -40 -21 -58
24 -58 33 0 40 3 40 20 0 11 -4 20 -10 20 -5 0 -10 -4 -10 -10 0 -5 -7 -10
-16 -10 -12 0 -14 5 -8 18 12 25 8 100 -6 117 -20 24 -29 18 -20 -12z"/>
<path d="M408 153 c7 -3 16 -2 19 1 4 3 -2 6 -13 5 -11 0 -14 -3 -6 -6z"/>
<path d="M1365 150 c-3 -5 -1 -10 4 -10 6 0 11 5 11 10 0 6 -2 10 -4 10 -3 0
-8 -4 -11 -10z"/>
<path d="M4305 150 c3 -5 8 -10 11 -10 2 0 4 5 4 10 0 6 -5 10 -11 10 -5 0 -7
-4 -4 -10z"/>
<path d="M400 130 c0 -13 20 -13 40 0 12 8 9 10 -12 10 -16 0 -28 -4 -28 -10z"/>
<path d="M806 124 c-9 -24 -7 -27 9 -10 17 17 19 26 6 26 -5 0 -12 -7 -15 -16z"/>
<path d="M1715 129 c-4 -6 -5 -12 -2 -15 2 -3 7 2 10 11 7 17 1 20 -8 4z"/>
<path d="M891 114 c0 -11 3 -14 6 -6 3 7 2 16 -1 19 -3 4 -6 -2 -5 -13z"/>
<path d="M1516 95 c-3 -8 -1 -15 4 -15 6 0 10 7 10 15 0 8 -2 15 -4 15 -2 0
-6 -7 -10 -15z"/>
<path d="M570 90 c-13 -8 -12 -10 3 -10 9 0 17 5 17 10 0 12 -1 12 -20 0z"/>
<path d="M4275 80 c3 -5 10 -10 16 -10 5 0 9 5 9 10 0 6 -7 10 -16 10 -8 0
-12 -4 -9 -10z"/>
<path d="M1690 65 c0 -8 5 -15 10 -15 6 0 10 7 10 15 0 8 -4 15 -10 15 -5 0
-10 -7 -10 -15z"/>
<path d="M394 53 c3 -17 -1 -23 -15 -23 -10 0 -19 -7 -19 -15 0 -16 12 -20 24
-8 4 4 15 8 24 8 9 0 18 8 20 18 2 10 -3 17 -11 17 -9 0 -18 6 -21 13 -4 6 -4
2 -2 -10z"/>
<path d="M456 63 c-12 -12 -6 -23 12 -23 10 0 24 -6 31 -12 10 -11 12 -8 9 11
-3 23 -37 39 -52 24z"/>
<path d="M734 52 c7 -7 20 -10 29 -6 26 10 20 19 -13 19 -24 0 -27 -2 -16 -13z"/>
<path d="M1654 55 c-4 -11 -12 -23 -17 -26 -5 -4 -5 -9 1 -13 13 -8 35 30 29
47 -3 7 -8 4 -13 -8z"/>
<path d="M311 44 c-7 -8 -11 -18 -8 -20 6 -7 47 18 47 28 0 13 -24 8 -39 -8z"/>
<path d="M1431 29 c-12 -12 -20 -23 -17 -26 6 -6 55 29 56 40 0 13 -16 7 -39
-14z"/>
<path d="M617 33 c-4 -3 -7 -11 -7 -17 0 -6 5 -5 12 2 6 6 9 14 7 17 -3 3 -9
2 -12 -2z"/>
<path d="M190 15 c0 -8 7 -15 15 -15 8 0 15 7 15 15 0 8 -7 15 -15 15 -8 0
-15 -7 -15 -15z"/>
<path d="M250 15 c-11 -13 -8 -15 15 -15 23 0 26 2 15 15 -7 8 -14 15 -15 15
-1 0 -8 -7 -15 -15z"/>
<path d="M3010 10 c0 -5 5 -10 10 -10 6 0 10 5 10 10 0 6 -4 10 -10 10 -5 0
-10 -4 -10 -10z"/>
</g>
</svg>
