<svg xmlns="http://www.w3.org/2000/svg" viewBox="0 0 507.19 332.07">
  <title>DeCamp.dev site logo</title>
  <desc>The website logo with the written initials MD</desc>
  <g id="md-initials" data-name="md-initials">
        <path id="initial--m" d="M10,285.37A589.3,589.3,0,0,0,108.26,166c38-61.11,60.58-123,62.51-122.2,1.22.52-8.59,24.64-22.52,70.39a440.34,440.34,0,0,0-13.52,60.26c-5.57,36.33-1.38,39.35,0,40,5.57,2.55,16.49-10.3,27-23.09,46.57-56.48,69.86-84.73,86.16-118.25C265.8,36.3,272.25,9.51,273.82,10c2,.62-10.32,41.83-28.72,117.13-16,65.66-9,43.8-16.89,73.76,0,0-7.05,26.82-14.08,103.06-.48,5.24-1.27,14.86,3.38,17.45,7.34,4.09,23.81-11.81,34.35-23.09" />
        <path id="initial--d" d="M313.55,231.05a112.73,112.73,0,0,0,15.2-20.84c9.45-16.67,16.61-39.35,11.83-42.23-3.51-2.12-12.48,7.09-24.21,19.15-26,26.72-38.91,50.09-42.8,57.44-4.6,8.68-17.75,44.4-17.46,47.86,1.24,14.68,14.62,23.48,15.77,24.21,9.29,5.92,18.75,5.53,27,5.07a77.21,77.21,0,0,0,31.53-9C365,295,391.39,270.2,393,268.78c23.62-21.52,37.53-41.07,52.37-61.94a489.47,489.47,0,0,0,38.86-67c10.11-21,13.55-31.89,13.51-45.05,0-7.51-.08-29.24-15.2-42.24-2.24-1.92-11.61-9.49-37.73-9.57-6.93,0-36.44.42-77.15,21.4a245.81,245.81,0,0,0-60.82,44.48"/>
  </g>
</svg>
